<?xml version="1.0" encoding="UTF-8"?>
<!DOCTYPE svg PUBLIC "-//W3C//DTD SVG 1.1//EN" "http://www.w3.org/Graphics/SVG/1.1/DTD/svg11.dtd">
<!-- Creator: CorelDRAW X8 -->
<svg xmlns="http://www.w3.org/2000/svg" xml:space="preserve" width="210mm" height="220mm" version="1.1" style="shape-rendering:geometricPrecision; text-rendering:geometricPrecision; image-rendering:optimizeQuality; fill-rule:evenodd; clip-rule:evenodd"
viewBox="0 0 21000 22000"
 xmlns:xlink="http://www.w3.org/1999/xlink">
 <defs>
  <style type="text/css">
   <![CDATA[
    .fil0 {fill:black}
   ]]>
  </style>
 </defs>
 <g id="Capa_x0020_1">
  <metadata id="CorelCorpID_0Corel-Layer"/>
  <g id="_872051264">
   <path class="fil0" d="M8395 2085c-7,92 -23,239 -67,450 -45,211 -120,486 -166,636 -46,150 -64,177 -75,217 -11,40 -15,95 -31,149 -16,55 -43,111 -76,176 -33,65 -73,141 -98,219 -26,78 -38,158 -53,208 -14,50 -31,69 -39,100 -8,31 -7,73 -22,108 -15,35 -45,64 -66,102 -22,38 -35,86 -62,155 -27,69 -69,159 -104,240 -35,81 -64,153 -79,206 -16,53 -17,86 -31,128 -15,42 -43,92 -74,153 -30,62 -64,134 -83,193 -19,58 -24,102 -40,148 -16,45 -43,91 -66,135 -23,44 -43,85 -52,129 -10,45 -10,92 -18,122 -8,29 -24,41 -60,72 -35,31 -91,80 -118,105 -28,24 -28,24 -37,53 -8,28 -25,84 -40,125 -16,42 -29,68 -38,112 -9,43 -14,105 -26,152 -13,46 -33,79 -45,121 -12,42 -16,95 -17,125 -1,30 1,38 -9,59 -9,21 -30,55 -45,94 -15,38 -23,80 -35,118 -12,39 -28,73 -50,105 -22,31 -50,61 -65,75 -14,15 -14,15 -14,27 -1,13 -2,38 -2,61 -1,23 -1,44 -1,55 0,11 0,11 5,11 5,1 15,2 34,20 19,18 46,53 92,114 45,61 110,147 148,201 37,53 48,73 54,83 6,10 6,10 15,10 9,-1 27,-2 44,-6 18,-5 35,-13 47,-21 11,-9 17,-18 20,-22 3,-5 3,-5 4,2 1,7 3,21 1,46 -2,25 -8,60 -11,77 -3,18 -3,18 4,20 7,2 21,6 37,13 15,6 31,15 58,44 27,30 65,79 105,118 40,38 81,67 117,89 36,23 66,40 92,51 27,10 50,14 62,16 12,2 13,2 21,10 7,9 21,25 64,68 43,42 115,111 160,159 45,47 63,75 77,100 14,25 25,48 30,60 6,11 6,11 16,15 10,3 30,10 63,26 33,17 79,42 112,63 34,21 54,38 66,52 13,14 18,25 33,39 15,14 40,30 60,38 20,8 36,8 58,21 22,13 51,39 94,75 44,36 101,81 139,104 37,24 56,26 75,43 19,16 39,48 70,70 30,23 72,37 103,55 32,17 54,38 65,49 11,10 11,10 28,1 17,-9 50,-27 82,-80 33,-53 65,-142 89,-214 24,-71 39,-126 53,-161 15,-34 29,-48 34,-66 5,-19 1,-41 -9,-53 -10,-13 -26,-16 -33,-27 -6,-11 -3,-30 8,-50 12,-20 32,-42 52,-62 20,-20 40,-39 48,-61 7,-22 1,-47 5,-74 4,-27 18,-55 24,-91 6,-35 4,-79 2,-130 -1,-51 -2,-111 11,-187 13,-76 40,-168 58,-250 18,-82 27,-154 40,-254 14,-101 31,-231 49,-329 19,-97 39,-163 57,-223 18,-60 34,-116 53,-148 19,-33 40,-43 50,-48 11,-5 11,-5 17,-36 6,-31 18,-92 44,-208 26,-117 67,-288 102,-424 35,-136 65,-238 88,-330 24,-91 40,-173 48,-214 8,-40 8,-40 17,-40 10,0 29,0 50,5 20,6 42,17 53,22 12,6 12,6 20,-4 8,-10 24,-30 43,-46 19,-16 41,-27 66,-34 24,-8 52,-12 65,-14 14,-2 14,-2 7,-9 -6,-7 -19,-21 -30,-29 -10,-7 -19,-8 -23,-9 -4,0 -4,0 7,-2 12,-1 34,-4 58,1 25,5 52,18 80,35 28,17 56,38 81,56 26,19 49,34 71,54 22,21 44,47 65,68 21,20 42,35 57,45 15,10 24,14 29,16 4,2 4,2 5,9 0,7 1,21 -3,29 -5,9 -15,12 -14,31 1,19 13,54 28,96 16,41 34,88 31,109 -2,21 -26,14 -37,11 -12,-3 -12,-3 2,30 14,32 43,96 84,221 42,124 98,308 131,418 34,109 46,145 52,162 6,18 6,18 6,43 -1,25 -2,76 -2,101 -1,25 -1,25 5,33 6,9 18,26 24,40 6,14 6,25 16,45 11,19 31,46 50,81 20,34 39,77 49,98 9,21 9,21 9,40 0,19 0,57 1,91 0,33 1,61 8,80 6,19 18,29 24,34 6,5 6,5 5,24 -2,19 -5,56 -11,84 -6,28 -15,47 -19,57 -5,9 -5,9 14,45 19,35 58,105 91,188 33,82 61,177 79,259 18,83 27,153 39,208 12,54 28,92 41,120 14,28 25,45 36,93 11,49 22,128 31,200 9,72 16,136 32,186 15,49 38,83 49,111 12,28 12,49 12,74 0,25 0,54 0,69 0,14 0,14 12,19 13,5 38,16 70,26 32,10 70,20 89,25 19,5 19,5 28,-8 8,-13 25,-40 51,-71 25,-31 58,-67 78,-107 20,-41 27,-85 31,-107 3,-22 3,-22 10,-21 7,2 21,5 27,14 6,9 2,24 1,32 -2,7 -2,7 8,-3 10,-10 29,-30 58,-52 29,-21 68,-45 105,-63 37,-19 71,-33 105,-60 33,-27 67,-68 93,-100 27,-32 47,-56 71,-77 24,-20 53,-37 67,-46 14,-9 14,-9 9,-16 -4,-7 -13,-21 -18,-35 -4,-14 -4,-28 -4,-35 0,-7 0,-7 12,-7 12,0 36,0 53,-1 16,-1 25,-3 34,-9 9,-6 18,-16 28,-22 10,-5 20,-6 32,-5 13,2 28,6 42,7 15,2 29,1 42,-9 13,-10 25,-30 65,-66 39,-36 105,-89 163,-143 58,-54 107,-108 140,-143 32,-35 47,-50 62,-60 15,-9 30,-13 44,-25 14,-11 27,-30 47,-70 20,-39 46,-98 64,-150 18,-51 28,-94 39,-130 11,-36 23,-64 29,-78 6,-14 6,-14 0,-25 -6,-10 -18,-31 -22,-56 -4,-26 0,-55 5,-82 4,-26 9,-50 12,-62 2,-13 2,-13 10,-8 8,4 23,12 35,24 13,12 23,28 26,57 4,28 1,70 -1,103 -1,34 -1,60 -1,73 0,13 0,13 15,5 15,-9 45,-26 68,-45 24,-19 40,-40 48,-51 8,-10 8,-10 22,-11 15,0 44,-1 67,-7 23,-6 41,-16 58,-22 17,-6 34,-8 46,-15 12,-7 19,-19 44,-48 25,-28 69,-74 111,-110 43,-37 86,-65 107,-79 21,-14 21,-14 18,-30 -2,-17 -7,-49 -23,-75 -17,-27 -44,-48 -71,-85 -28,-37 -56,-89 -72,-131 -16,-43 -20,-75 -22,-91 -2,-16 -2,-16 -18,-15 -16,1 -47,3 -62,4 -16,1 -16,1 -14,-9 2,-9 6,-28 8,-57 2,-30 2,-69 7,-94 4,-24 13,-34 18,-46 4,-12 4,-27 -27,-89 -30,-62 -92,-173 -138,-286 -47,-113 -79,-229 -97,-327 -17,-98 -19,-179 -20,-219 -1,-41 -1,-41 -13,-55 -13,-15 -38,-44 -51,-59 -12,-14 -12,-14 -19,-7 -7,8 -21,23 -35,31 -15,7 -29,7 -40,-10 -11,-17 -19,-51 -21,-87 -2,-36 2,-73 -24,-176 -27,-102 -85,-270 -114,-381 -29,-111 -30,-164 -42,-205 -12,-41 -35,-69 -46,-91 -10,-22 -8,-38 -3,-51 6,-13 15,-23 0,-67 -14,-44 -53,-122 -83,-222 -31,-101 -54,-225 -101,-385 -48,-160 -119,-356 -179,-518 -59,-162 -106,-290 -153,-418 -47,-129 -93,-257 -116,-322 -24,-64 -24,-64 -36,-58 -12,7 -36,20 -50,26 -15,6 -20,5 -23,-29 -2,-33 -2,-100 -31,-248 -29,-149 -88,-379 -142,-566 -55,-187 -105,-330 -137,-426 -32,-96 -46,-145 -78,-223 -31,-78 -79,-185 -114,-283 -35,-98 -56,-188 -66,-251 -11,-62 -11,-99 -11,-142 -1,-43 -2,-94 -2,-119 -1,-25 -1,-25 -16,-53 -16,-28 -47,-85 -68,-126 -21,-42 -31,-69 -36,-83 -5,-14 -5,-14 -15,1 -11,14 -32,42 -42,56 -11,14 -11,14 -44,-14 -32,-27 -98,-83 -155,-134 -58,-51 -107,-99 -132,-123 -24,-25 -24,-27 -52,-21 -28,5 -83,18 -117,31 -33,12 -45,24 -59,38 -14,14 -29,29 -54,39 -25,10 -60,15 -95,34 -35,19 -69,52 -93,77 -23,25 -36,41 -43,49 -6,8 -6,8 -15,23 -9,16 -26,47 -60,88 -35,41 -87,91 -135,150 -47,60 -89,128 -130,163 -40,34 -78,34 -126,48 -49,15 -107,44 -156,70 -50,25 -90,48 -122,60 -31,13 -55,16 -82,35 -28,20 -60,56 -101,94 -42,38 -92,77 -137,106 -45,28 -84,46 -103,56 -20,9 -20,9 -28,23 -7,15 -22,44 -51,89 -29,46 -71,107 -105,144 -33,37 -59,51 -71,57 -13,7 -13,7 -34,7 -22,0 -65,0 -106,-4 -41,-4 -79,-12 -98,-17 -19,-4 -19,-4 -35,18 -16,21 -49,63 -96,123 -48,61 -112,139 -162,195 -50,55 -88,87 -106,103 -19,16 -19,16 -19,35 0,19 -1,56 -9,148zm286 -958c44,-25 106,-59 162,-91 56,-31 108,-61 138,-83 31,-22 41,-37 46,-45 5,-7 5,-7 36,-9 31,-2 92,-6 136,-7 44,-1 70,1 87,8 18,7 27,19 40,32 12,12 28,25 36,32 8,6 8,6 -4,19 -12,13 -36,40 -66,61 -30,22 -67,39 -90,51 -23,12 -33,19 -35,28 -2,8 4,18 12,24 7,5 16,6 14,12 -2,6 -15,16 -35,31 -20,15 -47,35 -69,53 -23,18 -40,34 -48,42 -9,8 -9,8 -30,7 -22,-2 -65,-5 -127,-4 -62,1 -143,6 -183,9 -41,2 -42,2 -49,-3 -6,-6 -18,-17 -41,-27 -24,-10 -58,-19 -75,-23 -17,-5 -17,-5 -16,-13 2,-8 5,-24 6,-32 2,-8 2,-8 12,-10 9,-1 28,-4 51,-13 23,-9 49,-25 92,-49zm-3231 9860c-8,59 -20,132 -36,198 -16,67 -36,127 -46,157 -10,30 -10,30 -13,72 -3,41 -8,123 -15,188 -7,64 -16,111 -29,146 -13,36 -30,61 -39,74 -8,12 -8,12 -19,53 -11,40 -33,120 -75,213 -42,93 -103,197 -155,284 -51,86 -92,155 -129,245 -38,91 -71,204 -113,337 -41,132 -92,285 -140,404 -47,119 -93,204 -128,263 -36,60 -62,95 -75,113 -13,18 -13,18 -12,35 1,17 3,51 4,68 1,17 1,17 -10,18 -11,0 -32,1 -43,2 -12,0 -14,0 -36,28 -21,27 -62,81 -105,131 -43,50 -87,95 -120,144 -33,50 -54,103 -91,162 -37,59 -91,123 -139,174 -49,50 -94,86 -116,104 -22,18 -22,18 -28,44 -7,27 -20,79 -35,123 -15,45 -32,81 -41,133 -8,52 -8,121 -19,177 -10,56 -30,99 -40,121 -10,21 -10,21 -3,28 6,6 19,19 32,31 14,13 27,24 33,29 7,6 7,6 -14,21 -21,15 -62,45 -82,60 -21,15 -21,15 -16,33 6,18 17,55 25,107 8,51 13,119 16,153 2,33 2,33 18,41 16,7 49,22 81,55 33,33 66,83 90,140 25,57 40,120 59,170 19,49 42,84 63,123 21,39 40,81 50,102 10,21 10,21 22,20 13,-1 38,-3 73,-1 34,2 79,8 106,15 28,6 39,13 51,17 11,3 23,3 36,-5 12,-8 26,-24 33,-32 7,-9 8,-10 35,-6 27,3 80,11 125,23 45,11 81,26 97,43 15,17 10,35 -38,72 -47,36 -138,92 -183,119 -45,28 -45,28 -10,17 35,-11 105,-33 181,-55 76,-22 158,-43 240,-52 82,-9 165,-6 216,-7 52,-1 73,-6 102,-18 29,-13 65,-33 83,-43 18,-10 18,-10 47,-10 30,0 88,0 151,2 64,3 132,8 183,4 51,-3 84,-15 116,-21 31,-5 62,-4 86,2 25,6 44,17 60,23 16,7 29,9 53,9 24,0 58,-2 101,-4 43,-1 96,-2 137,7 40,10 70,30 90,40 20,10 31,10 46,2 15,-9 34,-26 66,-50 32,-23 76,-54 119,-69 43,-16 86,-17 112,-4 27,12 38,39 42,59 4,20 1,34 -24,50 -24,16 -70,34 -111,53 -41,20 -76,40 -94,50 -17,10 -17,10 1,10 18,0 54,0 104,-3 51,-3 115,-9 163,-30 49,-22 81,-58 113,-89 32,-32 65,-59 81,-73 16,-14 16,-14 29,-13 13,0 39,1 68,13 28,11 60,32 79,46 20,15 28,23 32,27 4,4 4,4 17,-2 13,-5 39,-16 78,-22 39,-6 90,-7 117,-8 27,0 29,0 10,-11 -18,-11 -56,-33 -98,-59 -42,-25 -89,-53 -112,-74 -24,-20 -25,-33 -13,-36 12,-3 37,4 80,21 43,18 103,46 153,71 51,25 91,48 111,59 20,11 20,11 50,6 29,-5 87,-15 178,-22 91,-8 215,-12 279,-14 64,-2 68,-2 49,-19 -19,-18 -62,-53 -92,-91 -31,-38 -50,-78 -60,-98 -9,-20 -9,-20 3,-16 13,5 38,14 61,24 23,10 45,21 66,27 21,5 42,5 60,14 17,9 31,28 52,50 22,23 50,50 64,64 14,13 14,13 24,13 11,0 32,0 49,-2 16,-2 28,-6 45,0 17,6 38,22 86,31 48,9 124,11 203,22 79,10 161,28 219,37 57,9 89,9 105,9 17,0 17,0 -1,-15 -17,-14 -51,-44 -92,-62 -41,-19 -90,-27 -163,-55 -74,-28 -172,-77 -263,-133 -91,-56 -175,-121 -221,-170 -47,-49 -56,-84 -60,-101 -5,-17 -5,-17 -22,-16 -17,1 -51,3 -75,-7 -23,-10 -37,-32 -59,-93 -22,-61 -53,-160 -72,-252 -18,-92 -24,-175 -27,-217 -3,-42 -3,-42 -20,-75 -18,-33 -52,-100 -74,-159 -22,-59 -32,-112 -37,-170 -5,-58 -5,-123 7,-190 12,-68 36,-138 48,-173 12,-36 12,-36 -3,-45 -15,-10 -45,-29 -62,-47 -17,-19 -21,-37 -20,-55 1,-18 7,-37 28,-77 22,-41 59,-104 89,-157 30,-52 52,-93 75,-128 24,-34 49,-61 62,-75 12,-13 12,-13 11,-40 -1,-27 -3,-80 3,-131 5,-52 19,-101 31,-185 12,-85 23,-205 39,-314 17,-110 39,-210 54,-288 15,-79 23,-136 44,-193 21,-56 54,-111 70,-139 17,-28 17,-28 17,-54 0,-26 0,-78 3,-116 2,-38 7,-61 13,-82 6,-20 13,-38 17,-47 3,-9 3,-9 3,-34 -1,-25 -2,-74 -4,-113 -3,-39 -7,-67 -9,-81 -2,-14 -2,-14 -11,-14 -10,-1 -29,-2 -52,-17 -22,-15 -49,-44 -72,-80 -24,-36 -45,-78 -65,-104 -19,-26 -37,-36 -63,-74 -25,-38 -57,-103 -76,-153 -19,-49 -25,-82 -28,-99 -3,-16 -3,-16 -16,-24 -13,-8 -40,-23 -71,-51 -32,-28 -69,-69 -96,-98 -27,-29 -43,-45 -77,-62 -34,-17 -86,-35 -124,-51 -38,-15 -61,-28 -96,-31 -36,-3 -83,4 -106,7 -24,4 -24,4 -27,-12 -3,-17 -9,-49 -12,-70 -3,-22 -3,-33 -3,-39 0,-5 0,-5 6,-7 7,-1 20,-4 42,-4 21,0 51,3 66,4 16,2 16,2 17,-17 2,-19 5,-58 7,-107 3,-49 5,-110 11,-146 6,-36 16,-48 21,-54 5,-6 5,-6 -17,-25 -22,-19 -67,-56 -134,-119 -67,-64 -156,-153 -238,-227 -82,-74 -157,-132 -194,-162 -37,-29 -37,-29 -57,-28 -20,1 -61,3 -81,4 -20,1 -20,1 -35,-13 -14,-15 -43,-44 -89,-109 -45,-65 -106,-166 -152,-235 -46,-70 -76,-108 -114,-147 -39,-38 -85,-78 -119,-125 -33,-48 -54,-105 -75,-156 -21,-52 -41,-100 -51,-123 -10,-24 -10,-24 -20,-5 -9,18 -28,56 -65,104 -37,49 -91,110 -137,146 -46,37 -83,50 -101,57 -19,6 -19,6 -27,30 -8,24 -24,71 -45,109 -22,38 -48,68 -61,82 -13,15 -13,15 -13,41 -1,27 -2,80 -3,156 -2,75 -4,173 -5,222 -1,49 -1,49 13,48 13,0 40,-1 54,-2 14,0 14,0 13,9 -1,10 -3,29 -4,38 -1,10 -1,10 2,16 4,6 11,18 14,24 4,6 4,6 3,17 0,11 -1,34 -2,45 0,11 0,11 -17,15 -17,4 -50,12 -66,27 -17,15 -17,37 -20,59 -3,21 -9,43 -12,53 -3,11 -3,11 13,12 16,2 48,5 64,6 16,2 16,2 23,10 7,9 20,26 34,44 15,17 31,35 39,44 8,9 8,9 0,16 -8,8 -24,22 -45,34 -21,12 -48,22 -63,50 -15,28 -19,75 -27,134zm-2777 4869c37,-21 85,-43 109,-55 24,-11 24,-11 36,-26 12,-16 36,-47 76,-85 39,-39 93,-86 128,-125 35,-39 51,-71 71,-98 21,-27 46,-50 72,-69 26,-19 52,-34 66,-41 13,-8 13,-8 26,0 14,9 40,25 60,42 20,17 33,34 52,48 20,14 45,24 60,34 14,9 17,18 18,46 1,28 0,76 7,115 7,39 21,69 52,108 30,39 76,86 108,126 33,40 53,72 72,93 19,21 37,30 47,45 9,15 8,35 7,72 -1,37 -3,90 -5,128 -1,38 -2,62 -3,73 0,12 0,12 -16,19 -15,8 -45,23 -94,37 -49,14 -116,27 -150,34 -33,6 -33,6 -36,27 -3,20 -9,62 -17,82 -8,21 -17,21 -44,18 -27,-2 -72,-7 -142,-23 -70,-16 -165,-43 -241,-61 -76,-17 -133,-24 -188,-39 -56,-16 -109,-40 -152,-52 -44,-11 -77,-10 -94,-10 -16,1 -16,1 -22,-11 -6,-11 -18,-35 -35,-55 -17,-20 -38,-37 -48,-45 -11,-9 -11,-9 -2,-22 8,-12 25,-37 44,-72 19,-35 39,-79 54,-114 15,-35 25,-62 43,-84 18,-22 44,-40 81,-60zm11442 -6907c15,33 35,82 52,131 18,49 33,100 55,160 21,60 49,131 71,192 21,62 35,114 52,170 18,57 39,117 81,228 43,112 106,274 153,396 48,122 79,205 109,275 30,70 60,127 73,172 14,46 12,79 -4,122 -15,42 -45,95 -61,140 -17,44 -21,82 -35,140 -13,58 -36,138 -48,178 -11,40 -11,41 -4,42 7,1 21,2 41,-8 21,-10 48,-31 62,-41 13,-11 13,-11 22,-7 10,3 28,10 37,14 9,3 9,3 7,9 -1,5 -4,16 3,20 7,4 24,1 55,-1 31,-3 77,-5 99,-6 23,-1 23,-1 34,16 11,16 33,50 53,83 20,34 39,68 48,85 9,18 9,18 17,58 8,41 24,123 64,240 39,118 103,272 157,396 55,124 100,217 148,292 47,75 98,132 133,183 35,52 55,100 71,131 17,32 29,48 60,93 31,45 81,118 125,171 43,52 79,83 94,108 15,24 9,42 1,61 -8,19 -18,38 -23,52 -5,14 -5,23 6,38 11,15 33,36 49,61 17,25 27,53 39,65 12,11 26,6 35,-3 9,-9 13,-22 19,-29 6,-6 14,-6 25,2 11,9 25,26 37,46 12,20 21,43 37,62 17,18 41,31 72,78 31,46 70,127 111,238 41,110 85,251 127,349 41,97 79,152 99,202 20,50 22,97 43,130 20,33 58,53 77,63 19,10 19,10 12,16 -7,6 -21,19 -28,54 -7,35 -7,93 -14,135 -7,41 -21,65 -44,90 -24,25 -56,52 -76,91 -20,39 -28,91 -39,138 -11,46 -25,86 -32,106 -7,21 -7,21 1,12 8,-8 24,-24 43,-50 19,-26 41,-61 51,-83 9,-22 6,-29 5,-33 -2,-4 -2,-4 11,-9 13,-6 40,-17 69,-35 30,-18 62,-43 79,-56 16,-12 16,-12 30,12 14,23 41,71 91,135 49,65 121,145 191,224 70,78 138,155 195,215 56,59 100,103 149,132 48,30 100,46 133,75 34,30 48,72 72,106 25,34 60,60 114,89 53,28 124,58 177,73 52,15 85,15 121,15 36,-1 75,-2 102,8 26,9 41,29 63,47 22,18 52,34 76,41 25,8 44,7 53,7 10,0 10,0 10,9 1,10 1,28 12,45 11,17 33,32 50,42 17,9 29,13 45,15 17,2 39,1 56,4 18,4 31,11 44,19 14,8 28,17 35,21 7,5 7,5 1,7 -7,2 -20,6 -35,8 -15,3 -32,4 -44,1 -11,-3 -18,-9 -36,-10 -19,-2 -51,2 -79,0 -28,-3 -53,-12 -83,-38 -29,-26 -64,-69 -99,-99 -34,-30 -68,-46 -105,-54 -36,-8 -74,-8 -100,-1 -26,6 -40,19 -49,32 -9,13 -12,26 0,40 12,15 38,32 78,46 40,15 94,26 130,35 37,10 57,18 59,24 3,6 -12,11 -43,14 -31,2 -79,3 -129,-2 -50,-6 -103,-19 -157,-48 -55,-30 -113,-76 -171,-120 -59,-43 -119,-85 -163,-112 -43,-28 -71,-41 -109,-45 -39,-4 -88,2 -112,5 -24,3 -23,3 -26,19 -4,16 -13,47 -7,83 7,36 29,78 55,121 26,43 56,87 91,113 35,25 76,31 89,38 13,6 -1,12 -33,12 -33,-1 -84,-9 -125,-32 -41,-22 -72,-59 -99,-90 -26,-32 -48,-59 -67,-73 -19,-14 -34,-16 -43,-8 -8,8 -8,24 -1,46 7,22 22,50 37,72 16,21 33,37 42,45 9,8 9,8 -5,10 -14,2 -41,6 -72,1 -31,-5 -65,-19 -110,-28 -45,-8 -99,-10 -145,-4 -46,6 -84,20 -103,26 -18,7 -18,7 -29,-7 -10,-14 -30,-42 -90,-61 -60,-19 -161,-30 -248,-35 -86,-6 -159,-8 -219,-2 -60,6 -108,19 -131,33 -24,15 -23,30 -22,38 0,8 0,8 -42,7 -42,-2 -127,-4 -217,-4 -91,0 -187,2 -248,8 -60,5 -83,13 -96,19 -14,7 -16,11 -12,19 3,7 14,18 39,32 26,14 67,31 105,51 38,20 72,43 93,61 22,17 30,29 34,35 5,6 5,6 -14,3 -19,-4 -56,-12 -127,-27 -72,-15 -177,-39 -260,-62 -82,-24 -142,-49 -193,-64 -50,-15 -93,-20 -143,-23 -50,-4 -109,-6 -142,-11 -34,-5 -43,-13 -105,-26 -62,-13 -177,-31 -298,-26 -120,6 -247,35 -336,55 -89,20 -141,31 -166,37 -26,5 -26,5 -51,-4 -24,-10 -74,-29 -129,-48 -56,-19 -119,-38 -185,-36 -67,2 -137,25 -154,47 -17,22 19,43 60,59 41,15 88,24 132,43 44,19 87,48 143,77 57,28 129,57 178,72 49,16 77,19 90,20 14,2 14,2 -36,2 -49,0 -147,0 -252,-16 -104,-16 -214,-49 -289,-63 -75,-14 -117,-10 -158,-16 -40,-7 -81,-24 -131,-44 -50,-21 -111,-45 -165,-63 -54,-19 -103,-31 -147,-37 -44,-6 -84,-6 -111,-11 -26,-6 -38,-17 -62,-26 -24,-9 -60,-16 -136,-20 -76,-3 -192,-3 -281,5 -89,7 -152,22 -227,53 -75,32 -162,79 -235,113 -72,33 -129,53 -177,58 -48,5 -86,-7 -105,-12 -20,-6 -20,-6 5,-13 24,-8 72,-23 139,-55 67,-32 152,-82 214,-128 62,-47 100,-91 120,-114 19,-22 19,-22 34,-22 15,0 45,0 99,-13 54,-13 131,-39 205,-73 74,-34 145,-75 181,-104 36,-29 38,-46 50,-97 11,-50 32,-133 47,-209 14,-76 21,-145 33,-181 12,-35 29,-38 36,-55 7,-18 4,-49 12,-72 8,-24 27,-40 46,-60 19,-19 37,-43 44,-87 8,-45 5,-112 3,-145 -1,-33 -1,-33 7,-36 9,-3 26,-9 59,-26 32,-16 81,-43 103,-61 23,-18 20,-26 0,-39 -20,-13 -58,-31 -91,-43 -34,-11 -64,-16 -79,-19 -15,-2 -15,-2 -15,-33 1,-32 2,-94 -5,-174 -6,-79 -21,-176 -41,-252 -21,-76 -48,-131 -62,-159 -13,-27 -13,-27 -6,-38 7,-11 21,-32 34,-50 13,-18 25,-33 37,-41 12,-7 24,-7 23,-36 -1,-28 -15,-86 -23,-157 -8,-71 -10,-155 -11,-229 -2,-73 -3,-136 -3,-167 -1,-31 -1,-31 -10,-34 -9,-3 -27,-9 -36,-12 -9,-3 -9,-3 -13,-16 -4,-13 -12,-40 -42,-111 -31,-72 -83,-190 -120,-261 -36,-70 -58,-93 -68,-105 -11,-11 -11,-11 -11,-25 0,-13 0,-39 -13,-78 -13,-38 -39,-90 -61,-127 -22,-37 -40,-60 -85,-114 -45,-53 -116,-136 -158,-185 -42,-48 -54,-61 -60,-68 -6,-6 -6,-6 -1,-24 5,-17 15,-53 21,-88 7,-35 10,-70 12,-87 1,-18 1,-17 -9,-35 -11,-18 -32,-55 -53,-88 -21,-32 -43,-61 -53,-75 -11,-14 -11,-14 0,-21 11,-8 34,-23 57,-51 23,-27 47,-68 63,-102 16,-35 24,-64 39,-86 14,-23 36,-38 55,-51 20,-14 38,-26 47,-32 9,-6 9,-6 10,-19 1,-13 3,-39 4,-62 1,-23 1,-42 1,-51 0,-10 0,-10 24,-37 23,-26 71,-80 110,-129 40,-49 72,-95 103,-132 31,-37 60,-66 75,-81 14,-14 14,-14 18,-7 4,8 12,23 24,41 12,19 29,41 41,55 12,14 20,20 24,23 4,3 4,3 6,-20 3,-24 8,-71 7,-121 0,-51 -6,-104 -9,-131 -3,-26 -3,-26 6,-39 9,-13 27,-38 52,-69 25,-31 58,-68 105,-124 47,-56 110,-131 157,-183 47,-52 79,-83 112,-144 32,-62 64,-156 107,-216 44,-61 98,-88 136,-110 38,-21 61,-37 78,-57 18,-21 31,-45 45,-99 15,-53 31,-137 76,-233 45,-96 118,-205 170,-286 51,-81 80,-134 100,-165 19,-31 29,-39 39,-32 11,7 21,30 28,40 7,11 11,10 18,6 7,-3 17,-9 24,-32 8,-22 13,-60 30,-101 17,-41 46,-86 71,-124 25,-37 45,-68 62,-86 18,-17 33,-20 45,-12 11,7 19,25 33,57zm-8084 -1480c112,97 297,252 497,422 200,170 415,356 625,538 210,182 414,360 602,524 188,164 361,314 508,437 146,124 267,222 345,287 77,64 112,95 149,124 37,28 76,54 110,78 33,23 61,43 80,50 19,7 29,1 44,-14 16,-16 37,-41 54,-67 18,-25 32,-51 44,-66 12,-14 23,-16 34,-12 12,5 25,17 44,25 19,8 43,12 72,14 28,3 60,4 84,10 25,5 43,16 59,36 16,21 30,50 30,61 1,12 -13,5 -37,-8 -24,-13 -58,-32 -87,-42 -30,-10 -54,-10 -78,-8 -24,1 -47,3 -69,7 -21,4 -40,9 -56,19 -16,10 -29,25 -37,45 -8,20 -11,46 -4,82 7,37 25,84 57,146 32,61 79,135 147,221 67,86 155,184 225,255 70,71 122,117 165,147 42,31 75,47 97,63 22,16 32,32 42,41 10,10 18,13 33,9 14,-4 35,-16 51,-41 15,-24 26,-62 34,-87 9,-25 17,-36 17,-57 0,-20 -8,-48 -21,-86 -14,-39 -33,-86 -44,-149 -12,-63 -15,-141 -16,-231 -2,-90 -1,-191 0,-242 0,-51 0,-51 9,-60 9,-9 26,-28 47,-51 21,-23 46,-52 58,-66 12,-15 12,-15 12,-55 0,-41 0,-122 7,-198 6,-75 20,-145 27,-183 6,-38 6,-45 16,-49 4,-2 10,-3 18,-4 9,1 14,2 19,4 10,4 10,11 16,49 7,38 20,108 27,183 7,76 7,157 7,198 0,40 0,40 12,55 12,14 36,43 57,66 21,23 39,42 48,51 9,9 9,9 9,60 0,51 1,152 0,242 -1,90 -5,168 -16,231 -11,63 -30,110 -44,149 -13,38 -21,66 -21,86 0,21 8,32 16,57 9,25 19,63 35,87 15,25 36,37 51,41 15,4 23,1 33,-9 9,-9 20,-25 42,-41 22,-16 55,-32 97,-63 42,-30 94,-76 164,-147 70,-71 158,-169 226,-255 68,-86 114,-160 147,-221 32,-62 50,-109 57,-146 7,-36 4,-62 -4,-82 -8,-20 -21,-35 -37,-45 -16,-10 -35,-15 -56,-19 -22,-4 -45,-6 -69,-7 -24,-2 -48,-2 -78,8 -29,10 -64,29 -87,42 -24,13 -38,20 -37,8 0,-11 14,-40 30,-61 16,-20 34,-31 59,-36 24,-6 56,-7 84,-10 28,-2 53,-6 72,-14 18,-8 32,-20 44,-25 11,-4 21,-2 34,12 12,15 26,41 44,66 17,26 38,51 54,67 15,15 25,21 44,14 19,-7 47,-27 80,-50 34,-24 73,-50 110,-78 37,-29 71,-60 149,-124 78,-65 198,-163 345,-287 147,-123 320,-273 508,-437 188,-164 392,-342 602,-524 209,-182 425,-368 625,-538 200,-170 385,-325 497,-422 113,-98 154,-137 198,-176 45,-39 93,-78 125,-103 31,-24 46,-33 29,-12 -16,22 -63,74 -117,136 -54,63 -115,137 -173,219 -58,81 -113,170 -158,273 -46,102 -83,219 -123,320 -40,102 -83,188 -126,256 -44,68 -88,118 -113,152 -25,34 -30,54 -30,64 -1,11 4,12 34,-2 31,-14 88,-44 137,-75 50,-30 92,-60 113,-75 21,-15 21,-15 2,6 -19,22 -57,64 -81,120 -25,55 -37,124 -74,203 -37,79 -99,168 -160,232 -61,65 -122,104 -152,124 -30,19 -30,19 1,17 32,-3 95,-9 154,-19 60,-9 116,-21 160,-31 45,-9 78,-15 94,-18 16,-3 16,-3 3,7 -14,9 -42,27 -77,43 -35,15 -78,28 -112,73 -34,45 -59,122 -103,194 -44,72 -106,139 -171,187 -65,49 -133,78 -167,93 -33,14 -33,14 -11,20 23,5 68,16 120,8 52,-8 111,-35 153,-56 42,-20 67,-36 88,-46 22,-10 39,-15 10,20 -29,34 -104,108 -164,176 -59,68 -103,130 -196,252 -94,122 -237,304 -344,424 -106,121 -176,179 -310,251 -134,72 -333,156 -533,259 -200,102 -402,222 -549,319 -147,96 -240,169 -291,217 -51,48 -59,72 -56,79 4,8 19,0 58,-22 40,-21 103,-56 208,-100 104,-44 249,-97 382,-149 133,-51 254,-101 353,-146 100,-46 178,-87 242,-124 65,-38 116,-73 142,-90 25,-17 25,-17 1,10 -24,28 -73,82 -121,159 -48,77 -96,176 -182,312 -85,136 -209,310 -360,478 -151,167 -331,329 -502,486 -171,157 -334,309 -459,466 -125,158 -212,322 -272,461 -60,140 -93,256 -115,352 -22,95 -48,169 -56,244 -8,75 -27,151 -27,231 0,80 4,165 4,229 0,64 -4,109 -13,145 -9,37 -22,65 -33,96 -11,30 -5,62 -6,93 -2,32 4,64 -4,99 -7,34 -27,71 -51,99 -25,28 -53,47 -78,56 -25,9 -46,6 -56,5 -11,-1 -11,-1 0,-3 10,-2 30,-6 44,-16 15,-11 24,-27 29,-47 5,-21 5,-45 7,-68 3,-23 8,-46 17,-64 9,-19 22,-34 29,-52 8,-17 10,-37 4,-45 -5,-9 -18,-6 -26,-3 -8,4 -10,8 -19,20 -9,11 -24,30 -41,41 -16,12 -35,16 -51,17 -17,1 -16,0 -23,-1 -8,-1 -8,-1 -9,95 -1,97 -4,290 -3,415 1,126 5,183 12,222 6,38 14,56 23,71 8,15 16,25 21,33 4,8 4,13 -5,25 -9,11 -26,29 -37,51 -10,21 -12,47 -13,72 -2,24 -2,47 3,63 4,17 12,28 20,44 7,15 14,35 9,60 -4,26 -20,56 -26,127 -5,72 0,185 6,254 6,68 12,92 31,134 19,42 50,104 77,157 28,54 51,100 75,150 25,49 50,103 68,137 18,34 29,50 34,58 6,8 6,8 -2,10 -8,2 -23,6 -34,18 -10,11 -16,31 -14,48 2,17 11,31 19,49 8,17 16,36 20,46 4,10 4,10 -8,7 -12,-4 -36,-10 -53,-15 -17,-5 -25,-9 -46,1 -20,10 -53,33 -88,63 -36,30 -74,67 -100,108 -9,15 -16,29 -30,39 -13,-10 -20,-24 -29,-39 -26,-41 -65,-78 -100,-108 -35,-30 -68,-53 -88,-63 -21,-10 -30,-6 -46,-1 -17,5 -41,11 -53,15 -12,3 -12,3 -8,-7 4,-10 11,-29 20,-46 8,-18 17,-32 19,-49 1,-17 -4,-37 -15,-48 -10,-12 -26,-16 -33,-18 -8,-2 -8,-2 -3,-10 6,-8 17,-24 35,-58 18,-34 43,-88 67,-137 25,-50 48,-96 75,-150 28,-53 59,-115 78,-157 18,-42 25,-66 31,-134 6,-69 11,-182 5,-254 -5,-71 -21,-101 -26,-127 -4,-25 3,-45 10,-60 8,-16 16,-27 20,-44 4,-16 4,-39 3,-63 -1,-25 -4,-51 -14,-72 -10,-22 -27,-40 -36,-51 -9,-12 -9,-17 -5,-25 4,-8 13,-18 21,-33 9,-15 17,-33 23,-71 7,-39 11,-96 12,-222 0,-125 -2,-318 -3,-415 -2,-96 -2,-96 -9,-95 -7,1 -21,2 -37,1 -17,-1 -35,-5 -52,-17 -17,-11 -32,-30 -41,-41 -9,-12 -11,-16 -19,-20 -8,-3 -21,-6 -26,3 -5,8 -3,28 4,45 7,18 20,33 29,52 9,18 14,41 17,64 3,23 3,47 7,68 5,20 14,36 29,47 15,10 35,14 45,16 10,2 10,2 -1,3 -10,1 -31,4 -56,-5 -25,-9 -53,-28 -77,-56 -25,-28 -45,-65 -52,-99 -8,-35 -2,-67 -4,-99 -1,-31 -9,-63 -20,-93 -11,-31 -25,-59 -33,-96 -9,-36 -13,-81 -13,-145 0,-64 4,-149 4,-229 0,-80 -4,-156 -12,-231 -8,-75 -20,-149 -42,-244 -23,-96 -55,-212 -115,-352 -60,-139 -147,-303 -272,-461 -125,-157 -288,-309 -459,-466 -171,-157 -351,-319 -502,-486 -152,-168 -275,-342 -360,-478 -86,-136 -134,-235 -182,-312 -48,-77 -97,-131 -121,-159 -25,-27 -25,-27 1,-10 26,17 77,52 141,90 65,37 143,78 242,124 100,45 220,95 353,146 133,52 278,105 383,149 104,44 168,79 207,100 40,22 55,30 58,22 4,-7 -5,-31 -55,-79 -51,-48 -144,-121 -291,-217 -148,-97 -349,-217 -549,-319 -200,-103 -399,-187 -533,-259 -134,-72 -204,-130 -310,-251 -107,-120 -250,-302 -344,-424 -93,-122 -137,-184 -197,-252 -59,-68 -135,-142 -163,-176 -29,-35 -12,-30 10,-20 21,10 46,26 88,46 42,21 101,48 153,56 52,8 97,-3 120,-8 22,-6 22,-6 -12,-20 -34,-15 -102,-44 -167,-93 -65,-48 -127,-115 -170,-187 -44,-72 -69,-149 -103,-194 -34,-45 -77,-58 -112,-73 -35,-16 -63,-34 -77,-43 -14,-10 -14,-10 3,-7 16,3 49,9 93,18 45,10 101,22 161,31 59,10 122,16 153,19 32,2 32,2 2,-17 -31,-20 -91,-59 -152,-124 -61,-64 -123,-153 -160,-232 -37,-79 -49,-148 -74,-203 -24,-56 -62,-98 -81,-120 -19,-21 -19,-21 2,-6 21,15 63,45 112,75 50,31 107,61 138,75 30,14 34,13 34,2 0,-10 -6,-30 -30,-64 -25,-34 -69,-84 -113,-152 -44,-68 -86,-154 -126,-256 -40,-101 -77,-218 -123,-320 -45,-103 -100,-192 -158,-273 -58,-82 -119,-156 -173,-219 -54,-62 -101,-114 -117,-136 -17,-21 -3,-12 29,12 31,25 80,64 125,103 44,39 85,78 198,176zm4170 5918c-14,16 -24,36 -28,56 -5,20 -5,40 -7,94 -3,53 -8,139 -20,228 -12,89 -32,180 -43,253 -12,72 -16,125 -19,239 -2,115 -3,291 -3,379 -1,89 -1,89 6,84 7,-5 5,-16 23,-28 17,-13 38,-27 51,-41 13,-14 -5,-24 3,-46 24,-71 22,-82 10,-113 -5,-13 -12,-25 -20,-35 -7,-10 -9,-30 -5,-54 3,-24 11,-52 26,-83 15,-31 37,-80 49,-115 11,-35 12,-57 8,-112 -3,-56 18,-132 8,-187 -11,-55 3,-91 0,-123 -2,-32 6,-62 15,-83 9,-21 13,-40 15,-76 1,-37 -5,-100 -12,-150 -7,-51 -4,-89 -18,-104 -13,-15 -25,2 -39,17zm-351 0c14,16 23,36 28,56 5,20 5,40 7,94 3,53 8,139 20,228 12,89 31,180 43,253 12,72 16,125 19,239 2,115 3,291 3,379 1,89 1,89 -6,84 -7,-5 -20,-16 -37,-28 -18,-13 -38,-27 -51,-41 -13,-14 -19,-27 -33,-46 -14,-20 -38,-45 -48,-69 -10,-24 -8,-46 0,-58 8,-11 21,-11 29,-21 7,-10 9,-30 6,-54 -4,-24 -12,-52 -27,-83 -15,-31 -37,-65 -48,-100 -12,-36 -12,-72 -9,-127 3,-56 11,-132 22,-187 11,-55 25,-91 28,-123 3,-32 -6,-62 -14,-83 -9,-21 -18,-35 -20,-71 -1,-37 6,-96 13,-147 7,-50 15,-91 28,-106 13,-15 33,-4 47,11zm65 -3158c0,0 -39,49 -39,128 0,78 38,203 60,259 20,-143 22,-247 -21,-387zm233 0c0,0 39,49 39,128 0,78 -38,203 -60,259 -20,-143 -22,-247 21,-387z"/>
   <path class="fil0" d="M14090 17730c6,0 7,2 15,14 9,14 12,23 12,29 0,6 -3,18 -7,27 -8,18 -26,54 -45,76 -4,3 -6,7 -10,7 -2,0 -4,-3 -4,-6 0,-3 3,-7 4,-10 12,-20 17,-36 17,-49 0,-32 -24,-41 -24,-49 0,-20 25,-39 42,-39zm-7563 218c0,-91 0,-108 -2,-127 -1,-20 -6,-30 -25,-34 -5,-1 -15,-2 -24,-2 -6,0 -10,-1 -10,-5 0,-4 5,-6 13,-6 32,0 70,2 85,2 15,0 52,-2 76,-2 8,0 12,2 12,6 0,4 -3,5 -11,5 -6,0 -10,1 -17,2 -16,3 -21,13 -22,34 -1,19 -1,36 -1,127l0 110c0,26 1,54 1,84 0,34 -2,72 -14,106 -12,36 -44,78 -101,113 -8,5 -18,9 -30,15 -4,3 -9,4 -12,4 -3,0 -5,-2 -5,-5 0,-3 3,-5 13,-11 8,-4 17,-10 29,-22 45,-46 45,-106 45,-223l0 -171zm406 122c-3,0 -4,1 -5,5l-33 85c-6,15 -9,29 -9,37 0,10 6,18 24,18l9 0c7,0 9,1 9,5 0,5 -3,6 -10,6 -19,0 -45,-2 -63,-2 -7,0 -40,2 -71,2 -8,0 -11,-1 -11,-6 0,-4 2,-5 7,-5 5,0 14,-1 19,-1 27,-4 38,-24 50,-54l150 -375c7,-17 11,-24 17,-24 5,0 9,6 15,19 14,33 110,277 148,368 23,53 40,62 52,65 9,1 18,2 26,2 4,0 7,1 7,5 0,5 -5,6 -27,6 -22,0 -65,0 -113,-1 -11,-1 -18,-1 -18,-5 0,-4 3,-5 9,-6 4,-1 8,-6 5,-13l-48 -127c-1,-3 -3,-4 -6,-4l-133 0 0 0zm122 -30c3,0 3,-2 3,-3l-54 -148c-1,-2 -1,-5 -3,-5 -2,0 -3,3 -4,5l-55 147c0,2 0,4 3,4l110 0zm454 -263c1,-10 5,-16 10,-16 4,0 8,3 16,19l163 337 162 -341c5,-10 8,-15 13,-15 6,0 9,6 11,19l54 369c6,38 12,55 30,60 17,6 29,6 37,6 5,0 9,1 9,4 0,5 -7,7 -15,7 -15,0 -98,-2 -121,-4 -14,-1 -18,-3 -18,-6 0,-3 3,-5 7,-7 3,-1 5,-9 3,-25l-36 -263 -2 0 -131 271c-13,28 -16,33 -22,33 -5,0 -11,-12 -21,-29 -14,-28 -61,-119 -68,-136 -6,-13 -41,-88 -62,-133l-3 0 -31 238c-1,11 -2,19 -2,28 0,12 8,17 18,19 11,3 19,3 25,3 5,0 9,2 9,5 0,5 -5,6 -14,6 -25,0 -52,-2 -63,-2 -11,0 -40,2 -59,2 -6,0 -11,-1 -11,-6 0,-3 4,-5 10,-5 5,0 9,0 18,-1 17,-4 21,-27 24,-48l60 -389zm747 171c0,-91 0,-108 -1,-127 -1,-20 -6,-30 -26,-34 -5,-1 -15,-2 -23,-2 -7,0 -10,-1 -10,-5 0,-4 4,-6 13,-6 16,0 33,1 48,1 16,1 29,1 38,1 19,0 138,0 149,0 12,-2 21,-3 26,-4 3,0 6,-2 9,-2 3,0 4,2 4,5 0,4 -3,11 -5,39 0,6 -2,32 -3,39 0,3 -2,7 -6,7 -4,0 -5,-3 -5,-8 0,-5 -1,-15 -4,-22 -4,-11 -10,-18 -40,-22 -10,-1 -73,-2 -84,-2 -3,0 -5,2 -5,6l0 151c0,4 1,7 5,7 13,0 81,0 95,-1 14,-2 23,-3 29,-9 4,-5 6,-8 9,-8 3,0 4,1 4,5 0,3 -2,13 -4,43 -1,12 -3,36 -3,40 0,5 0,11 -5,11 -4,0 -6,-2 -6,-5 0,-6 0,-14 -2,-21 -3,-12 -11,-21 -33,-24 -12,-1 -71,-1 -85,-1 -3,0 -4,2 -4,6l0 47c0,20 0,75 0,92 2,42 11,50 72,50 15,0 41,0 56,-7 16,-7 23,-19 27,-44 1,-6 2,-9 7,-9 4,0 4,5 4,11 0,14 -4,54 -7,66 -5,16 -10,16 -33,16 -44,0 -77,-2 -103,-2 -26,-1 -44,-2 -62,-2 -7,0 -20,0 -34,1 -14,0 -29,1 -41,1 -8,0 -12,-2 -12,-6 0,-3 2,-5 9,-5 9,0 16,-1 22,-2 12,-3 15,-16 17,-33 3,-25 3,-72 3,-127l0 -105zm485 271c-9,-5 -11,-7 -11,-21 0,-32 3,-68 3,-78 1,-9 2,-15 7,-15 6,0 6,5 6,10 0,8 3,20 6,30 13,44 48,61 85,61 54,0 80,-37 80,-68 0,-30 -9,-57 -58,-96l-28 -22c-66,-51 -88,-93 -88,-141 0,-66 55,-113 138,-113 39,0 64,6 79,10 5,1 8,3 8,7 0,8 -2,25 -2,72 0,13 -2,18 -6,18 -5,0 -6,-4 -6,-11 0,-5 -3,-24 -16,-39 -9,-12 -26,-30 -65,-30 -44,0 -71,26 -71,62 0,27 14,48 63,86l17 13c72,54 98,95 98,152 0,34 -13,76 -56,104 -30,19 -64,24 -95,24 -35,0 -62,-4 -88,-15zm836 -51c-58,-52 -74,-119 -74,-177 0,-40 13,-111 70,-163 43,-40 100,-63 189,-63 37,0 59,2 86,6 23,3 42,8 60,10 6,0 9,3 9,7 0,5 -2,12 -3,33 -2,19 -1,52 -2,64 -1,9 -2,14 -7,14 -5,0 -6,-5 -6,-13 -1,-19 -9,-40 -23,-55 -20,-21 -67,-37 -122,-37 -52,0 -86,13 -112,37 -44,40 -55,96 -55,154 0,143 108,213 188,213 53,0 86,-6 110,-33 10,-12 17,-29 20,-40 2,-9 3,-12 8,-12 4,0 5,5 5,9 0,7 -7,59 -13,80 -3,10 -6,13 -16,17 -24,9 -69,14 -107,14 -82,0 -151,-18 -205,-65zm675 -91c-3,0 -4,1 -5,4l-32 86c-6,15 -9,29 -9,36 0,11 5,19 24,19l8 0c8,0 9,1 9,5 0,4 -3,6 -10,6 -19,0 -45,-2 -63,-2 -7,0 -39,2 -71,2 -7,0 -11,-2 -11,-6 0,-4 2,-5 7,-5 6,0 14,-1 19,-1 27,-4 39,-24 51,-54l149 -375c8,-18 11,-24 17,-24 6,0 9,5 15,19 14,33 110,276 148,367 23,54 40,62 53,65 9,2 18,3 25,3 5,0 8,0 8,5 0,4 -6,6 -28,6 -21,0 -65,0 -113,-2 -11,0 -18,0 -18,-5 0,-3 3,-4 9,-5 4,-1 8,-6 5,-14l-48 -126c-1,-3 -3,-4 -6,-4l-133 0zm122 -30c3,0 4,-2 3,-4l-54 -147c0,-3 -1,-6 -3,-6 -2,0 -3,3 -3,6l-55 147c-1,2 0,4 2,4l110 0zm456 -270c2,-10 5,-16 10,-16 5,0 9,3 16,19l163 337 163 -341c4,-10 7,-15 13,-15 5,0 9,6 11,19l54 369c5,38 11,55 29,60 18,6 29,6 37,6 6,0 10,1 10,4 0,5 -7,7 -16,7 -15,0 -97,-2 -121,-4 -14,-1 -17,-3 -17,-6 0,-3 2,-5 6,-7 4,-1 6,-9 3,-25l-35 -263 -3 0 -130 271c-14,28 -17,33 -22,33 -6,0 -11,-12 -21,-29 -14,-28 -62,-119 -69,-136 -5,-13 -41,-88 -62,-133l-2 0 -31 238c-1,11 -2,19 -2,28 0,12 8,17 18,19 11,3 19,3 25,3 5,0 9,2 9,5 0,5 -5,6 -14,6 -26,0 -52,-2 -63,-2 -11,0 -40,2 -59,2 -6,0 -11,-1 -11,-6 0,-3 4,-5 10,-5 4,0 8,0 17,-1 17,-4 22,-27 25,-48l59 -389zm770 171c0,-91 0,-108 -1,-127 -1,-20 -6,-30 -25,-34 -5,-1 -15,-2 -24,-2 -6,0 -10,-1 -10,-5 0,-4 4,-6 13,-6 16,0 34,1 49,1 15,1 29,1 37,1 19,0 138,0 150,0 11,-2 21,-3 25,-4 3,0 7,-2 10,-2 3,0 3,2 3,5 0,4 -3,11 -4,39 -1,6 -2,32 -3,39 -1,3 -2,7 -6,7 -5,0 -6,-3 -6,-8 0,-5 0,-15 -3,-22 -4,-11 -10,-18 -40,-22 -10,-1 -73,-2 -85,-2 -3,0 -4,2 -4,6l0 151c0,4 0,7 4,7 13,0 82,0 95,-1 15,-2 24,-3 29,-9 4,-5 7,-8 10,-8 2,0 4,1 4,5 0,3 -2,13 -5,43 0,12 -2,36 -2,40 0,5 0,11 -6,11 -4,0 -5,-2 -5,-5 -1,-6 -1,-14 -2,-21 -3,-12 -12,-21 -34,-24 -11,-1 -70,-1 -85,-1 -3,0 -3,2 -3,6l0 47c0,20 -1,75 0,92 1,42 11,50 71,50 16,0 41,0 57,-7 15,-7 22,-19 27,-44 1,-6 2,-9 6,-9 5,0 5,5 5,11 0,14 -5,54 -8,66 -4,16 -9,16 -32,16 -45,0 -78,-2 -103,-2 -26,-1 -45,-2 -63,-2 -6,0 -19,0 -34,1 -13,0 -29,1 -41,1 -8,0 -12,-2 -12,-6 0,-3 3,-5 10,-5 9,0 16,-1 21,-2 12,-3 15,-16 18,-33 3,-25 3,-72 3,-127l0 -105 -1 0zm502 -2c0,-91 0,-108 -2,-127 -1,-20 -6,-30 -25,-34 -5,-1 -15,-1 -23,-1 -7,0 -11,-2 -11,-6 0,-4 5,-5 14,-5 31,0 69,2 81,2 21,0 66,-2 85,-2 37,0 77,3 109,26 17,11 41,41 41,81 0,45 -18,85 -79,134 53,67 95,120 130,157 33,35 58,39 67,41 6,1 12,2 16,2 5,0 8,1 8,4 0,5 -5,6 -12,6l-56 0c-34,0 -49,-3 -64,-11 -26,-14 -49,-42 -82,-88 -24,-33 -52,-73 -59,-82 -3,-4 -7,-4 -11,-4l-52 -2c-3,0 -5,2 -5,5l0 8c0,56 0,103 3,128 2,18 6,31 24,33 8,1 22,3 29,3 5,0 7,1 7,4 0,5 -4,6 -12,6 -35,0 -79,-1 -88,-1 -11,0 -49,1 -73,1 -7,0 -11,-1 -11,-6 0,-3 2,-4 9,-4 9,0 16,-2 22,-3 11,-2 15,-15 17,-33 3,-25 3,-72 3,-127l0 -105 0 0zm70 47c0,7 1,9 6,11 12,4 30,6 45,6 24,0 32,-2 42,-10 18,-13 36,-41 36,-90 0,-85 -57,-109 -92,-109 -15,0 -26,1 -32,2 -4,2 -5,4 -5,9l0 181 0 0zm475 7c0,-102 67,-234 247,-234 148,0 241,87 241,223 0,137 -96,245 -247,245 -172,0 -241,-128 -241,-234zm404 11c0,-133 -77,-216 -175,-216 -69,0 -147,38 -147,187 0,124 69,222 184,222 41,0 138,-20 138,-193zm382 134c1,46 9,62 21,66 10,3 22,4 31,4 7,0 10,1 10,5 0,5 -5,6 -13,6 -39,0 -63,-2 -74,-2 -6,0 -34,2 -65,2 -8,0 -13,-1 -13,-6 0,-4 3,-5 9,-5 8,0 19,-1 27,-3 16,-5 18,-22 19,-74l5 -353c0,-12 2,-21 8,-21 7,0 12,8 22,19 7,8 98,105 185,192 41,40 121,126 132,136l2 0 -6 -268c0,-37 -5,-48 -20,-54 -9,-4 -23,-4 -31,-4 -8,0 -10,-1 -10,-5 0,-5 7,-5 15,-5 32,0 60,1 73,1 6,0 29,-1 58,-1 8,0 14,0 14,5 0,3 -4,5 -11,5 -6,0 -10,0 -18,2 -16,5 -21,17 -22,51l-6 377c0,13 -3,18 -8,18 -7,0 -14,-6 -20,-13 -38,-36 -114,-114 -177,-176 -65,-64 -131,-139 -142,-150l-1 0 6 251zm889 74c-10,-5 -12,-7 -12,-21 0,-32 3,-68 3,-78 1,-9 3,-15 8,-15 5,0 5,5 5,10 0,8 3,20 6,30 13,44 48,61 85,61 54,0 80,-37 80,-68 0,-30 -9,-57 -58,-96l-28 -22c-66,-51 -88,-93 -88,-141 0,-66 55,-113 138,-113 39,0 64,6 79,10 6,1 9,3 9,7 0,8 -3,25 -3,72 0,13 -2,18 -6,18 -5,0 -6,-4 -6,-11 0,-5 -3,-24 -16,-39 -9,-12 -26,-30 -65,-30 -44,0 -71,26 -71,62 0,27 14,48 63,86l17 13c72,54 98,95 98,152 0,34 -13,76 -56,104 -30,19 -63,24 -95,24 -35,0 -62,-4 -87,-15z"/>
   <path class="fil0" d="M10027 21346l0 0 0 1 0 -1zm-6884 54c5,-20 23,-27 19,-57 -82,-9 -74,-109 -123,-152 -25,-12 -73,-2 -85,-28 -9,-37 6,-125 0,-190 -102,-150 -175,-330 -264,-494 -15,-17 -56,-8 -57,-38 1,-54 -27,-80 -19,-142 -90,-46 -114,-158 -198,-210 13,-67 -64,-97 -85,-152 -8,-21 4,-54 0,-76 -12,-61 -68,-102 -76,-161 -58,-22 -102,-36 -113,-104 -4,-29 17,-65 10,-95 -14,-61 -93,-107 -123,-181 -6,-14 4,-35 0,-57 -13,-65 -56,-93 0,-142 -71,-78 -134,-163 -160,-285 -55,-32 -96,-76 -95,-162 -45,-47 -81,-92 -132,-123 -126,-77 -241,27 -321,85 -75,55 -184,91 -189,162 124,0 166,109 151,228 -12,99 -110,182 -85,247 -153,111 -143,387 -264,532 -29,9 27,9 19,28 -14,15 -49,8 -47,38 -23,53 -37,115 -76,152 -3,23 43,-5 29,29 -16,56 -95,70 -66,142 -67,29 -97,111 -142,162 -23,26 -72,38 -94,66 -18,23 -18,68 -38,105 -21,37 -49,56 -57,85 -9,38 6,80 0,114 -16,109 -77,172 -151,238l0 85c-13,21 -50,19 -56,48 -94,123 -188,248 -255,398 35,6 38,45 66,57 109,0 159,17 227,0 86,-21 79,-13 132,-66 19,-20 51,-39 66,-57 59,-71 58,-143 94,-228 14,-32 45,-49 57,-76 24,-55 24,-130 57,-180 22,-35 51,-50 84,-76 12,-34 9,-77 29,-105 52,-74 266,-128 377,-133 33,-8 41,-41 85,-38 72,53 191,43 312,29 174,-20 345,-69 519,-38 22,-155 3,-210 -104,-247 -77,-27 -124,20 -198,28 -22,3 -52,-9 -76,-9 -107,-1 -174,57 -236,0 -117,7 -370,77 -424,-29 40,-112 88,-274 141,-370 19,-34 51,-67 66,-105 10,-23 2,-59 10,-85 18,-61 72,-122 104,-181 38,-71 82,-138 103,-190 19,-45 7,-96 48,-104 49,-10 103,96 122,133 37,68 53,120 76,180 49,-4 101,36 104,67 6,68 24,179 66,247 17,29 50,43 66,66 39,59 44,114 75,171 32,0 50,13 66,29 21,23 21,68 19,114 83,63 106,161 151,256 21,45 52,87 76,133 41,81 74,174 113,257 42,89 81,172 123,256 24,11 45,24 56,48l0 66c40,58 86,124 113,200 6,16 -5,38 0,57 22,81 102,140 123,209 17,55 -5,114 28,161 118,8 194,-39 293,0 10,-72 139,-143 151,-199 10,-49 -28,-71 -28,-133 -93,-40 -101,-166 -189,-210zm6858 -127c-14,-20 -30,-39 -47,-59 -16,-21 -32,-42 -43,-63 -18,-32 -31,-61 -47,-86 -8,-13 -17,-25 -28,-36 -8,-8 -17,-16 -28,-23 1,-1 1,-2 1,-4 1,-2 3,-6 5,-12 3,-7 6,-16 5,-26l0 -1 0 -14 -12 -6c-16,-9 -31,-13 -44,-18 -6,-2 -11,-4 -16,-7 0,0 -1,-1 -2,-1 0,-3 0,-6 0,-9 0,-14 -2,-26 -4,-36 -2,-11 -5,-20 -7,-28l-1 -6 -4 -4c-11,-12 -24,-20 -36,-27 -20,-9 -40,-15 -55,-23 -7,-4 -13,-8 -18,-13 -4,-4 -7,-9 -10,-15 -1,-5 -2,-10 -2,-16 0,-11 3,-25 6,-41 4,-15 8,-32 8,-50 0,-4 0,-7 -1,-11 -1,-17 -5,-31 -10,-43 -7,-18 -17,-31 -24,-41 -4,-5 -7,-9 -9,-13 -2,-4 -4,-8 -5,-11 0,0 0,-1 0,-1 0,-3 1,-7 2,-12 0,-5 1,-11 1,-18 0,-6 -1,-13 -4,-21 -5,-9 -11,-14 -16,-18 -8,-5 -15,-8 -19,-10 -2,-1 -3,-2 -4,-2 -1,-3 -3,-6 -4,-11 -2,-7 -4,-16 -6,-26 -1,-4 -2,-9 -3,-13 -1,-4 -2,-8 -4,-12 -8,-24 -14,-42 -18,-64l0 -1 -1 -2c-2,-7 -7,-13 -12,-16 -4,-3 -9,-5 -12,-6 -7,-2 -13,-2 -17,-2 -3,0 -6,0 -8,0 -5,-15 -12,-29 -20,-41 -14,-19 -31,-35 -46,-49 -13,-13 -25,-25 -34,-38l0 -60 -9 -7c-17,-15 -35,-26 -49,-37 -7,-6 -13,-11 -17,-17 -5,-6 -9,-13 -11,-20 -1,-3 -1,-4 -1,-5 0,0 1,-1 2,-2 2,-2 6,-5 11,-12 2,-3 4,-7 6,-12 1,-4 2,-9 2,-14 0,-3 0,-6 -1,-9l-2 -16 -15 -4c-5,-1 -9,-3 -12,-5 -3,-3 -6,-6 -9,-10 -5,-7 -10,-17 -14,-30 -6,-19 -11,-42 -19,-66 -9,-24 -19,-49 -38,-71 -12,-14 -25,-23 -37,-30 -10,-6 -19,-10 -26,-14 -12,-6 -21,-11 -26,-16 -3,-3 -4,-5 -6,-9 -1,-3 -3,-7 -3,-13 0,-2 -1,-5 -1,-7 0,-5 1,-10 2,-14 2,-7 5,-14 10,-22 4,-8 10,-18 15,-30l7 -16 -12 -11c-12,-12 -23,-26 -32,-42 -15,-24 -28,-53 -45,-80 -8,-14 -18,-27 -29,-40 -8,-8 -17,-16 -28,-24 1,-2 2,-5 3,-8 1,-3 2,-7 3,-11 2,-4 3,-10 3,-16 0,-6 -2,-13 -4,-19 -3,-5 -6,-10 -10,-14 -4,-6 -8,-11 -12,-15 -10,-8 -20,-12 -29,-16 -7,-3 -14,-5 -19,-7 -8,-4 -13,-7 -16,-9 0,0 0,0 0,0 3,0 5,0 9,-1 2,0 5,-1 8,-2 5,-2 10,-6 14,-12 4,-5 5,-12 5,-17 0,-7 -1,-12 -3,-17 -2,-13 -6,-25 -11,-37 -11,-22 -25,-41 -40,-60 -24,-29 -50,-56 -69,-85 -10,-14 -18,-28 -23,-42 -6,-15 -9,-29 -9,-45 0,-5 1,-10 1,-16l4 -24 -24 -3c-16,-2 -27,-6 -35,-11 -6,-3 -10,-7 -14,-12 -6,-7 -11,-18 -16,-31 -6,-13 -12,-30 -21,-47 -11,-23 -24,-38 -33,-49 -4,-5 -7,-10 -8,-13 -2,-3 -2,-6 -2,-9 -1,-4 1,-11 6,-22l14 -32 -34 -2c-7,-1 -12,-2 -16,-4 -3,-1 -6,-3 -9,-6 -5,-4 -9,-11 -14,-20 -6,-13 -12,-30 -21,-47 -5,-9 -11,-17 -18,-25 -7,-8 -17,-15 -28,-20l-16 -6 -11 13c-18,21 -41,38 -67,54 -40,23 -87,42 -132,64 -45,23 -89,50 -122,91l-9 11 5 13c9,21 20,38 33,53 19,23 39,40 53,59 7,10 13,20 17,31 5,11 8,24 9,39l1 16 15 5c29,11 57,28 77,51 10,12 18,25 24,39 5,15 8,31 8,48 0,18 -3,38 -10,60l-8 21 20 9c24,11 43,29 60,53 25,36 43,84 61,133 9,24 19,48 29,70 12,23 24,43 41,61 11,12 24,20 36,26 9,4 17,8 25,11 11,4 19,9 25,14 3,3 5,5 7,9 1,2 2,4 3,7 -3,7 -6,14 -9,21 -3,10 -7,22 -9,35l-1 9 5 8c19,28 37,54 53,82 16,28 30,57 38,91l3 10 9 4c16,10 30,22 42,37 18,21 33,49 47,79 14,29 27,62 43,93l5 11 13 2c4,0 8,1 12,1 11,0 21,-2 27,-4 3,0 5,-1 6,-1 0,2 0,4 0,7 0,41 4,79 14,113 8,30 22,56 41,78 0,1 -1,2 -2,4 -2,2 -4,6 -5,10 -1,4 -2,8 -2,12 -5,2 -10,4 -16,5 -19,6 -44,9 -71,10 -40,2 -85,1 -126,5 -21,2 -41,6 -60,12 -12,5 -24,11 -35,19 -8,-4 -15,-6 -23,-8 -14,-4 -27,-5 -41,-5 -27,0 -55,5 -82,9 -27,5 -53,9 -77,9l-1 0c-157,0 -329,-10 -500,-10 -27,0 -55,4 -79,4 -14,0 -27,-1 -38,-4 -8,-2 -15,-5 -22,-9 -1,-3 -1,-6 -1,-9 0,-8 2,-12 5,-18 3,-4 7,-8 11,-12 7,-7 16,-13 25,-22 4,-4 9,-9 13,-15 3,-7 6,-15 6,-24l0 0c0,-7 -2,-13 -5,-18 -3,-4 -6,-7 -9,-9 -2,-2 -4,-4 -7,-5 5,-2 10,-4 14,-7 11,-6 20,-14 27,-23 14,-15 22,-33 29,-52 9,-29 14,-60 18,-91 4,-24 8,-48 13,-68 0,0 0,0 0,0 8,-3 13,-6 17,-7 3,-1 5,-2 8,-2 2,0 4,0 7,1l21 5 7 -20c25,-68 55,-131 87,-194 31,-63 64,-126 92,-194l1 -3 0 -2c1,-4 1,-7 1,-10 0,-7 -1,-13 -4,-18 -1,-4 -3,-7 -5,-9 -1,-2 -2,-4 -2,-4 0,0 0,-1 0,-1 24,-33 57,-76 85,-124 14,-24 28,-51 37,-79 10,-27 16,-56 16,-87 0,-33 -8,-68 -26,-102l-7 -12 -14 0c-36,0 -70,3 -102,9 -23,5 -45,12 -66,22 -30,14 -56,35 -74,64 -16,26 -25,58 -27,96 -16,11 -31,22 -45,31l-8 4 -3 9c-28,99 -79,194 -122,302 -19,49 -32,103 -48,149 -9,23 -18,43 -28,60 -11,16 -22,28 -36,36l-14 7 2 16c1,5 1,9 1,14 0,20 -5,34 -12,48 -7,15 -17,30 -25,50l-3 8 3 9c4,12 9,21 12,30 3,7 5,13 5,21 -2,4 -5,7 -9,10 -7,7 -18,14 -30,21 -12,7 -25,14 -37,25l-10 8 2 13c1,12 5,21 7,28 2,8 3,13 3,20 0,1 0,2 0,3 -50,44 -87,85 -121,143 -28,49 -53,102 -78,155 -24,52 -47,104 -73,149 -9,16 -22,32 -36,49 -14,17 -28,35 -40,56l0 0c-4,8 -6,16 -8,24 -3,11 -4,22 -6,31 -1,10 -3,17 -5,23 -13,29 -31,54 -51,79 -20,25 -41,50 -60,78l-11 16 13 14 0 0c1,1 2,3 2,7 1,4 2,9 2,16 0,2 -1,4 -1,6 -49,37 -85,78 -118,120 -35,46 -66,93 -104,143 -19,25 -40,52 -59,82 -19,30 -35,63 -40,101l-1 9 6 8c11,16 27,27 44,34 17,7 35,10 53,10 28,0 57,-7 81,-20 10,6 20,11 30,15 14,5 29,7 42,7 18,0 35,-3 51,-9 23,-8 44,-20 64,-31 20,-11 39,-21 57,-26l12 -4 4 -12c11,-38 33,-81 57,-122 23,-40 48,-79 64,-112 5,-10 9,-21 12,-33 5,-18 10,-36 14,-52 2,-9 4,-16 6,-23 2,-6 4,-12 6,-15 13,-27 29,-53 46,-79 17,-27 34,-53 48,-83 14,-28 31,-57 46,-83 8,-13 17,-24 28,-36 10,-12 21,-25 29,-41 15,-27 20,-54 26,-74 3,-10 6,-18 9,-25 4,-7 9,-12 15,-17 17,-12 37,-20 60,-25 22,-4 48,-6 75,-6 38,0 79,3 121,3 32,0 65,-2 96,-9 26,-5 52,-14 76,-29 9,8 19,14 29,18 15,6 30,8 44,8 22,0 42,-5 61,-10 18,-5 35,-10 50,-12 7,-1 15,-2 23,-2 21,0 46,4 72,7 26,3 55,7 84,7 12,0 25,-1 38,-3 34,-4 65,-13 94,-21 30,-9 57,-16 83,-16 12,-1 25,-1 38,-1 55,0 119,3 166,10 27,4 46,5 64,5 21,0 39,-2 65,-5 11,-1 21,-2 32,-2 18,0 37,2 56,2 17,0 34,-2 51,-6 11,14 20,30 29,47 16,33 31,70 48,107 15,34 33,67 59,94l0 66 5 6c45,56 75,131 107,207 16,38 32,76 52,113 16,30 35,59 57,86 -2,5 -3,10 -3,15 0,10 3,18 6,25 5,10 10,17 15,24 4,6 7,12 7,15 3,13 5,28 7,44 2,23 4,49 10,73 3,12 7,24 14,36 5,11 14,22 24,31l9 7 12 -2c18,-5 34,-12 48,-21 21,-13 37,-29 53,-42 13,-13 26,-24 41,-32 4,0 8,1 11,2 6,2 12,6 22,10 9,5 22,9 38,9 7,0 14,-1 22,-2l4 -1 4 -2c13,-8 23,-18 31,-29 13,-15 22,-32 30,-47 9,-15 18,-30 29,-42 2,-3 7,-7 15,-12 10,-8 25,-17 38,-29 6,-6 12,-12 18,-20 5,-8 9,-18 10,-29l0 0c1,-2 1,-5 1,-7 0,-9 -2,-18 -5,-25 -5,-15 -13,-28 -22,-41zm-3695 -2594l-11 0c-2,0 -5,0 -7,0 -32,0 -60,7 -85,13 -25,7 -48,13 -68,13 -10,0 -20,-1 -29,-5 -9,-3 -19,-9 -28,-17l-4 -4 -5 0c-1,0 -2,0 -3,0 -8,0 -16,1 -21,4 -9,4 -15,9 -19,12 -2,1 -4,2 -7,3 -2,0 -4,1 -7,1 -1,0 -3,0 -5,-1 -16,-10 -33,-13 -47,-13 -15,0 -28,3 -39,6 -12,3 -23,6 -34,7 -10,1 -19,1 -28,1 -31,0 -55,-6 -78,-12 -23,-7 -45,-15 -70,-18 -7,0 -14,-1 -20,-1 -30,0 -59,6 -86,11 -28,5 -55,9 -81,9 -1,0 -2,0 -3,0l-19 0 5 18c8,28 22,47 40,59 13,9 28,14 43,18 23,5 46,6 67,10 22,3 40,7 54,17 4,2 10,7 16,14 9,10 20,23 28,36 8,14 15,27 16,36 3,12 4,24 4,35 0,21 -4,41 -10,61 -10,30 -24,60 -37,92 -13,32 -24,66 -24,104 0,6 1,11 1,16 -1,3 -2,4 -4,7 -2,2 -5,4 -8,6 -5,4 -11,8 -17,15 -5,7 -9,17 -9,29 0,1 0,2 0,3l1 15 15 -2c1,0 1,0 2,0 -3,4 -6,8 -9,12 -2,3 -4,6 -5,9 -2,3 -3,7 -3,12l0 2c0,10 4,19 8,28 6,12 13,23 19,34 5,10 9,20 10,32 0,0 0,0 0,0l-1 1c0,1 -2,2 -6,3 -4,2 -11,4 -18,9 -3,3 -7,6 -9,11 -3,5 -4,10 -4,16 0,3 0,7 1,10l0 1 0 0c5,18 7,33 7,47 0,14 -2,26 -6,38 -5,17 -14,33 -25,51 -10,19 -22,39 -32,64 -6,15 -20,50 -33,82 -6,16 -12,31 -16,42 -3,6 -4,10 -6,13 0,2 -1,3 -1,4l-1 1 0 1 0 0 0 1 0 1c0,1 -1,1 -1,3l0 0 0 0c1,6 3,10 5,14 4,6 8,11 14,17 8,9 17,18 23,27 4,4 6,8 8,12 2,4 2,7 2,9 0,3 0,5 -2,8l-1 0 0 1c-3,6 -8,12 -13,16 -9,7 -21,14 -33,21 -13,6 -26,14 -37,27l-3 3 0 4c-15,94 -44,172 -92,231l-8 10 9 9c8,7 12,15 15,24 3,10 4,21 4,33 0,28 -6,61 -6,99 0,9 1,18 1,27 -7,5 -16,10 -26,15 -12,6 -26,11 -40,16l-6 2 -2 7c-17,57 -49,114 -75,179 -13,32 -23,66 -33,99 -10,32 -21,64 -33,91 -1,2 -3,5 -6,8 -4,5 -10,11 -16,17 -6,6 -12,13 -16,23 -5,14 -4,28 -5,39 0,5 0,10 0,15 -1,4 -2,8 -4,11 -8,16 -20,32 -34,46 -13,14 -29,26 -44,33l-7 4 -1 7c0,2 -1,5 -1,7 0,1 0,1 0,2 -8,-19 -18,-36 -27,-51 -7,-11 -12,-22 -16,-33 -4,-11 -6,-23 -7,-37 0,-8 1,-16 3,-26 2,-10 4,-17 5,-22 1,-5 2,-8 2,-13 0,-3 -1,-8 -3,-11 -1,-2 -2,-3 -3,-4 -1,-2 -3,-3 -5,-6 -1,-2 -4,-6 -7,-11 -11,-18 -19,-42 -26,-65 -3,-12 -6,-23 -10,-32 -3,-11 -6,-19 -11,-27 -4,-5 -8,-9 -12,-13 -6,-5 -12,-10 -17,-14 -2,-2 -4,-4 -6,-5 -1,-2 -2,-3 -2,-3 -10,-26 -13,-48 -13,-74 0,-19 2,-38 5,-62l3 -25 -23 11c-12,5 -29,8 -46,8 -16,0 -32,-3 -44,-7 -8,-10 -13,-19 -16,-30 -3,-11 -4,-23 -4,-37 0,-11 1,-24 1,-37 0,-13 -1,-26 -4,-39 -15,-77 -46,-148 -74,-220 -29,-71 -56,-142 -67,-216l-2 -12 -12 -1 -1 0c-9,0 -16,2 -21,5 -9,5 -14,10 -18,13 -2,1 -3,2 -5,3 -1,0 -3,1 -6,1 -2,0 -6,-1 -9,-2 -10,-6 -17,-15 -21,-26 -5,-12 -8,-27 -8,-44 0,-22 5,-47 12,-70 6,-23 15,-44 23,-58l8 -13 -14 -7c-18,-9 -29,-19 -37,-30 -6,-8 -9,-17 -12,-28 -4,-15 -5,-32 -5,-51 -1,-19 -1,-40 -4,-61 -3,-16 -9,-32 -17,-48 -12,-24 -28,-48 -42,-73 -15,-24 -29,-48 -36,-71 -9,-28 -15,-59 -18,-92l-1 -7 -6 -3c-12,-8 -26,-13 -37,-18 -9,-5 -17,-9 -22,-14 0,-8 2,-16 5,-24 2,-11 5,-23 5,-38 0,-6 0,-13 -1,-20l-2 -12 -12 0 -1 0c-8,0 -16,0 -22,0 -8,0 -14,0 -17,-2 11,-11 19,-24 25,-38 6,-17 8,-35 8,-53 0,-29 -5,-58 -11,-87 -6,-29 -13,-58 -15,-83l0 -2 -1 -1c-2,-5 -5,-9 -9,-12 -3,-2 -6,-3 -9,-4 -6,-1 -10,-2 -15,-2 -2,0 -4,0 -5,0 3,-4 6,-9 8,-14 5,-9 6,-19 6,-29 0,-18 -6,-34 -10,-50 -5,-16 -10,-32 -10,-48 0,-10 2,-20 6,-30l9 -22 -23 2c-6,0 -11,0 -17,0 -22,0 -41,-2 -59,-5 -17,-4 -33,-7 -50,-7 -12,0 -25,2 -37,8 -11,5 -22,13 -31,24 -3,0 -6,0 -9,0 -8,0 -15,-1 -22,-4 -7,-2 -16,-5 -27,-7l-11 -1 -4 11c-17,49 -46,83 -87,107 -41,25 -94,39 -156,45l-14 1 2 14c0,3 0,6 0,8 0,16 -5,30 -10,44 -3,8 -6,15 -8,23 -2,9 -4,18 -4,27 0,8 1,16 3,24 4,16 12,28 21,38 14,15 30,25 44,36 7,5 13,10 18,15 5,6 9,11 12,18 1,2 2,6 2,12 0,5 -1,12 -2,19 0,7 -2,15 -2,22 0,3 1,7 1,10 8,42 29,78 49,113 21,34 40,65 46,96l1 8 8 3c20,7 39,12 54,21 8,4 14,8 19,14 5,6 10,13 12,22 1,2 1,3 1,6 0,3 -1,7 -2,13 -3,8 -7,17 -11,27 -4,10 -7,21 -7,33 0,1 0,2 0,4 1,10 4,20 8,31 7,15 16,31 25,47 9,15 19,29 25,41 23,43 49,79 66,114l4 8 9 0c9,-1 19,-1 27,-1 7,0 15,0 20,1 9,1 15,4 18,7 2,1 3,3 4,5 1,2 1,5 1,9l0 1c0,2 0,2 0,3 -1,0 -2,2 -4,3 -4,2 -11,4 -20,7 -4,2 -8,4 -12,7 -4,4 -8,9 -10,15l-2 5 2 5c52,135 104,268 151,408l2 5 4 2c13,8 26,14 37,20 10,7 18,13 23,21 6,30 16,55 25,80 8,25 15,51 15,84 0,12 -1,24 -3,38l-1 9 9 5c44,24 85,52 120,85 -4,9 -8,19 -12,27 -4,12 -10,21 -16,26l-7 5 2 9c2,12 8,22 14,31 10,13 21,23 31,33 9,10 17,20 21,32 0,1 0,4 -1,7 -1,5 -3,12 -5,18 -1,3 -2,6 -3,9 0,2 -1,5 -1,9l0 2c1,10 4,23 8,39 7,23 16,50 26,74 4,12 9,23 13,32 5,10 8,17 12,23 4,6 9,11 14,15 3,2 7,4 9,5 4,2 6,4 8,5 2,2 3,4 5,10 7,20 9,46 10,74 1,29 2,58 9,86 39,155 104,305 161,439l4 9 10 0c11,-1 23,-1 34,-1 85,0 172,17 256,17 27,0 53,-2 80,-7 22,-4 47,-14 71,-25 24,-11 47,-24 65,-33 20,-11 45,-25 67,-42 11,-8 20,-17 28,-28 8,-10 14,-23 16,-36l1 -7 -5 -6c-4,-3 -8,-6 -13,-8 -4,-2 -8,-3 -13,-3 -7,0 -13,3 -17,5 -7,4 -13,8 -18,11 -5,2 -10,4 -17,4 0,0 -1,0 -2,0 0,-1 0,-2 0,-3 0,-12 -2,-23 -5,-33 -5,-14 -12,-24 -16,-34 -5,-9 -8,-16 -8,-27 0,-1 0,-3 0,-4 1,-8 4,-16 9,-25 7,-14 18,-28 28,-44 6,-8 10,-17 14,-26 3,-10 6,-20 6,-31 0,-9 -2,-19 -5,-28 14,-6 25,-14 34,-24 9,-9 16,-19 20,-31 7,-16 11,-34 14,-51 4,-18 7,-35 12,-51 0,0 1,-2 3,-5 2,-3 7,-8 12,-13 5,-5 10,-11 13,-20 6,-18 6,-38 6,-56 0,-18 0,-35 4,-49 10,-42 31,-81 53,-121 22,-40 45,-80 60,-125 12,-39 19,-85 27,-131 7,-46 16,-93 29,-135 4,-11 10,-23 18,-36 6,-12 14,-25 20,-39 7,-17 11,-35 15,-52 4,-16 8,-32 13,-42 18,-40 46,-74 70,-107 13,-17 25,-33 34,-51 10,-17 17,-36 20,-55 1,-7 1,-15 1,-21 0,-20 -3,-38 -7,-55 -3,-16 -7,-31 -7,-45 0,-5 1,-9 2,-14 28,-13 50,-32 70,-50 21,-20 41,-39 66,-52l6 -4 1 -7c1,-10 1,-19 1,-29 0,-9 0,-17 0,-26 0,-20 1,-39 6,-50 2,-6 5,-9 8,-12 4,-2 9,-4 17,-4 3,0 6,0 9,1l14 2 2 -15c15,-139 79,-258 140,-379 30,-60 60,-121 82,-185 22,-64 36,-130 36,-202 0,-39 -4,-80 -13,-122l-4 -11zm6840 80l-12 -3c-7,-2 -14,-3 -20,-3 -16,0 -29,5 -40,11 -16,9 -28,21 -40,30 -6,5 -12,9 -17,12 -6,3 -11,5 -17,6 -5,2 -12,2 -20,2 -17,0 -39,-3 -63,-7 -24,-3 -50,-7 -78,-7 -11,0 -24,1 -36,3 -9,1 -17,4 -24,7 -12,4 -22,9 -31,14 -9,4 -16,7 -20,7 -7,1 -14,2 -21,2 -23,0 -45,-5 -68,-11 -23,-5 -47,-11 -73,-11 -5,0 -11,1 -17,1 -25,3 -46,11 -66,17 -20,7 -36,12 -50,11 -7,0 -14,-1 -21,-4 -7,-3 -14,-8 -22,-17l-17 -17 -17 17c-8,7 -15,12 -24,15 -8,3 -18,4 -29,4 -18,1 -40,-3 -63,-8 -23,-4 -48,-9 -74,-9 -4,0 -8,0 -12,0 -28,2 -50,11 -69,17 -9,4 -17,7 -25,9 -7,1 -14,2 -21,3 -3,-3 -6,-5 -9,-9 -3,-5 -7,-10 -10,-17 -6,-10 -13,-21 -23,-32 -10,-11 -24,-22 -43,-27 -11,-3 -24,-4 -36,-4 -31,0 -64,7 -98,14 -33,8 -68,15 -101,18 -39,3 -78,5 -118,5 -113,0 -222,-13 -298,-33l-2 0 -3 0c-1,-1 -3,-1 -4,-1 -7,0 -13,1 -19,3 -10,3 -17,10 -22,16 -4,4 -6,8 -9,11 -1,2 -2,3 -3,5 -13,-17 -28,-30 -45,-41l-9 -5 -10 3c-44,12 -90,23 -135,36 -4,-1 -7,-3 -10,-5 -3,-3 -6,-7 -10,-11 -6,-6 -13,-15 -23,-22 -9,-8 -22,-16 -38,-18l-2 0 -1 0c-1,0 -2,0 -3,0 -7,0 -13,1 -19,3 -10,3 -17,9 -23,15 -4,4 -7,8 -9,11 -3,5 -6,8 -7,8l-2 1c0,0 -1,1 -3,1 -1,0 -2,0 -4,-1 -2,-1 -4,-2 -6,-5 -4,-4 -9,-12 -16,-22 -3,-5 -7,-10 -12,-15 -5,-5 -12,-9 -19,-13l-8 -4 -8 3c-16,4 -30,5 -44,5 -23,0 -46,-4 -71,-4 -11,0 -23,1 -35,4 -12,3 -25,9 -37,17 -8,6 -14,12 -19,19 -10,12 -15,26 -20,38 -7,20 -13,38 -20,50 -4,6 -7,11 -12,15 -4,3 -8,6 -15,7l-21 5 3 22c2,12 5,21 7,28 2,7 4,13 4,20 0,1 0,1 0,2 -4,3 -8,5 -12,7 -11,6 -24,12 -38,18 -13,7 -28,16 -40,29l-7 8 1 10c1,9 3,18 5,25 4,11 8,19 10,26 2,5 3,9 4,14 -6,1 -11,3 -16,6 -16,7 -28,17 -39,26 -11,9 -20,18 -29,24l-14 9 4 16c1,6 2,10 2,14 0,9 -2,14 -5,19 -2,5 -5,9 -9,14 -6,6 -13,14 -20,23 -4,5 -7,11 -10,17 -3,7 -4,15 -4,23 0,12 4,25 11,38l11 23 22 -14c29,-18 58,-33 88,-47 30,-15 62,-29 99,-47 27,-13 49,-24 68,-33 20,-8 37,-12 56,-12 19,0 42,4 73,17l16 7 11 -12c9,-10 25,-21 45,-28 20,-7 44,-11 67,-11 25,0 49,5 66,15l6 3 6 0c7,0 14,-1 21,-4 11,-3 20,-10 25,-17 5,-5 8,-9 11,-13 4,-6 7,-9 10,-11 1,-1 2,-2 3,-2 0,0 1,0 2,-1 9,4 18,9 28,16 12,7 26,16 44,21l13 4 10 -9c11,-10 21,-16 31,-19 11,-4 22,-5 34,-5 17,0 36,2 55,6 19,3 40,6 61,6 14,0 27,-1 41,-5 4,-1 9,-3 13,-5 6,7 13,11 19,13 12,4 23,6 35,7 17,1 36,1 51,4 7,1 14,3 19,6 6,2 9,5 13,9 3,4 7,11 9,22 2,10 4,23 4,38 0,33 -6,77 -13,124 -6,48 -12,98 -12,147 0,26 2,52 6,76 3,11 6,20 10,29 6,14 14,26 19,37 3,5 5,9 7,13 1,1 1,3 2,4l0 1 0 0 0 0c0,3 1,7 1,10 0,11 -3,25 -6,40 -2,15 -5,31 -5,49 0,5 0,10 0,15 2,16 8,32 14,45 9,21 21,40 29,57 4,9 8,17 10,25 3,8 4,15 4,22l0 0c0,3 -1,7 -3,13 -3,8 -8,19 -13,30 -5,12 -11,25 -12,40 -2,14 -2,29 -2,44 0,38 4,81 7,123 4,43 7,86 7,127 0,20 0,39 -3,57 -1,11 -5,24 -9,38 -5,14 -10,29 -10,47 0,1 0,3 0,5 3,39 17,72 29,102 6,14 12,28 16,41 4,13 6,26 6,37 0,7 -1,14 -3,20 0,1 0,1 -1,2 -2,2 -7,5 -13,10 -3,2 -7,5 -11,8 -3,4 -7,8 -10,14l-3 5 0 6c-5,266 -42,517 -42,751 0,42 1,84 4,125l1 15 14 6c6,2 12,3 19,3 5,0 10,-1 15,-2 7,-3 13,-7 18,-11 6,-6 11,-10 15,-13 2,-2 4,-3 5,-3 1,-1 2,-1 4,-1 1,0 2,0 4,1 3,1 8,3 14,5 6,2 13,4 22,4 4,0 8,0 12,-2 24,-7 41,-19 56,-29 8,-4 15,-9 22,-12 7,-2 14,-5 22,-5 1,0 2,0 3,0 8,0 20,2 33,5 13,2 27,6 42,6 7,0 13,-1 20,-2 22,-6 40,-18 55,-31 11,-11 20,-21 29,-32 13,-15 24,-30 36,-41 6,-5 12,-10 18,-13 6,-3 12,-5 20,-6l18 -3 2 -19c2,-20 3,-40 3,-59 0,-47 -6,-89 -11,-130 -6,-40 -11,-79 -11,-123 0,-1 0,-2 0,-3l0 -15 -13 -6c-39,-21 -59,-58 -59,-89 0,-15 4,-29 13,-40 9,-11 22,-21 42,-27l23 -7 -7 -23c-18,-61 -24,-126 -24,-193 0,-129 23,-265 25,-398l0 -4 -1 -5c-3,-6 -6,-12 -10,-16 -7,-8 -15,-13 -22,-16 -4,-3 -9,-5 -13,-7 -5,-3 -8,-5 -9,-7l-1 -2c0,-1 -1,-2 -1,-5 0,-1 0,-2 0,-3l0 -2 0 -2c0,-1 0,-2 0,-2 0,-4 1,-6 1,-8 1,-3 3,-5 6,-8 2,-2 6,-5 10,-8 6,-4 15,-10 23,-18 4,-4 8,-10 10,-16 4,-6 6,-13 7,-20l1 -8 -4 -8c-4,-6 -10,-11 -15,-15 -10,-6 -19,-9 -28,-11 -6,-1 -12,-2 -16,-3 -4,-1 -7,-2 -9,-2 -2,-1 -3,-2 -4,-2l0 0c0,0 0,-1 0,-1 0,-5 2,-7 4,-11 2,-3 5,-6 9,-9 6,-6 14,-13 21,-23 4,-5 7,-12 9,-19 3,-7 4,-15 4,-23l0 -2 0 -6 -3 -5c-7,-13 -12,-24 -14,-34 -3,-11 -3,-21 -3,-32 0,-12 1,-26 2,-40 1,-15 3,-32 3,-51 0,-16 -1,-34 -4,-54l-2 -7 -5 -6c-9,-9 -18,-13 -26,-17 -7,-2 -13,-4 -17,-6 -8,-3 -12,-6 -14,-8 -1,-1 -1,-1 -1,-2 0,0 -1,-1 -1,-2 2,-3 4,-6 7,-8 5,-6 13,-12 23,-17 9,-5 21,-10 32,-16l17 -8 -4 -18c-4,-17 -6,-35 -6,-55 0,-31 4,-65 10,-101 5,-36 11,-74 15,-112 2,-18 2,-35 2,-53 0,-9 0,-18 0,-27 0,-27 1,-52 6,-71 3,-9 6,-18 11,-24 2,-4 5,-7 9,-10 19,5 36,8 53,8 29,0 55,-7 77,-13 23,-6 42,-11 60,-11 13,0 25,2 40,10l10 6 11 -5c9,-4 16,-9 21,-14 8,-8 14,-14 19,-17 2,-2 4,-3 7,-3 1,-1 2,-1 4,-1 0,1 1,2 1,4 1,2 2,5 4,7 2,4 6,9 12,13 6,3 13,5 19,5 4,0 9,-1 13,-2l3 -1 2 -1c33,-17 74,-24 120,-24 63,0 135,13 208,27 73,14 147,28 215,28 1,0 2,0 3,0l15 0 6 -13c10,-20 23,-38 36,-58 14,-19 28,-40 40,-67 12,-28 18,-59 23,-87 6,-28 13,-54 23,-72 4,-7 10,-14 18,-21 11,-11 26,-22 40,-37 7,-8 13,-16 18,-27 5,-10 7,-22 7,-34 0,-11 -2,-22 -5,-34l-5 -11zm3594 2565c-5,-19 -10,-38 -12,-59l-2 -13 -11 -6c-20,-9 -35,-24 -48,-43 -20,-27 -35,-64 -55,-101 -9,-18 -20,-35 -34,-52 -9,-10 -20,-20 -31,-28 1,-2 2,-4 3,-6 2,-4 4,-8 6,-13 1,-6 2,-11 2,-18 0,-1 0,-2 0,-4l-1 -21 -21 -1c-12,-1 -20,-4 -27,-8 -4,-3 -9,-7 -12,-12 -6,-8 -10,-19 -14,-32 -4,-13 -7,-28 -10,-43l-2 -7 -5 -5c-10,-11 -24,-18 -36,-23 -9,-3 -18,-6 -27,-9 -12,-4 -24,-8 -31,-12 -4,-2 -7,-4 -9,-7 -1,-1 -2,-2 -3,-3 7,-40 10,-77 10,-112 0,-76 -14,-140 -36,-197 -21,-57 -50,-107 -82,-156l-6 -10 -13 -1c-12,0 -22,-2 -30,-4 -14,-5 -24,-11 -32,-20 -5,-6 -10,-14 -15,-24 -7,-15 -13,-33 -19,-54 -7,-20 -14,-42 -25,-65 -41,-86 -92,-162 -132,-238 -13,-24 -27,-43 -39,-62 -12,-18 -21,-36 -25,-56l-3 -11 -10 -5c-13,-6 -24,-15 -33,-25 -15,-16 -25,-35 -33,-60 -8,-24 -13,-53 -15,-85l-1 -18 -18 -4c-11,-2 -17,-5 -21,-10 -3,-3 -6,-7 -9,-13 -4,-9 -8,-21 -12,-35 -4,-14 -9,-29 -18,-44 -16,-28 -36,-45 -48,-59 -7,-7 -12,-13 -15,-19 -2,-6 -4,-12 -4,-21 0,-7 1,-15 4,-26l4 -15 -13 -10c-10,-7 -20,-12 -30,-16 -14,-6 -27,-11 -34,-16 -4,-2 -7,-5 -8,-7 -1,-2 -2,-4 -3,-6 1,-3 3,-6 5,-9 4,-6 11,-14 18,-24 3,-6 7,-12 9,-19 3,-8 5,-16 5,-25l1 -13 -11 -8c-21,-14 -40,-27 -53,-42 -7,-8 -11,-16 -15,-26 -4,-10 -6,-21 -6,-36l-1 -14 -12 -7c-14,-7 -27,-13 -37,-20 -5,-4 -8,-7 -11,-11 -2,-2 -4,-6 -6,-9l0 -98 -25 2c-3,1 -5,1 -8,1 -8,0 -14,-1 -19,-3 -8,-3 -14,-7 -19,-12 -5,-4 -9,-10 -13,-16 0,-2 0,-5 0,-7 0,-17 -3,-32 -8,-45 -5,-10 -10,-18 -16,-25 -8,-11 -18,-19 -26,-26 -6,-5 -12,-10 -17,-14l0 -74 -16 -5c-7,-2 -13,-6 -19,-10 -10,-7 -20,-18 -28,-31 -14,-20 -26,-44 -41,-67 -8,-11 -16,-22 -26,-32 -10,-9 -23,-17 -37,-22 -12,-3 -23,-5 -34,-5 -10,0 -19,1 -28,4 -13,4 -24,11 -36,18 -11,7 -22,15 -35,24 -38,25 -78,54 -111,86 -34,32 -62,67 -78,105l-6 16 12 11c10,9 19,20 26,33 11,20 21,45 33,71 12,27 28,56 53,84 11,13 25,23 38,32 20,13 40,23 56,34 8,5 15,11 21,16 6,6 10,11 13,18 0,0 1,1 1,4 0,3 -1,9 -2,16 -1,7 -3,15 -3,24 0,5 1,11 2,16 1,4 2,6 3,9 3,9 8,20 14,32 5,11 10,22 13,29 8,22 17,38 26,51 7,10 14,18 21,25 10,10 20,18 29,26 9,9 19,20 30,36 6,8 13,24 21,42 11,28 24,63 37,97 7,17 14,33 21,49 8,15 16,29 26,41 22,29 47,45 63,57 8,6 14,11 17,14 1,2 2,4 2,6 1,1 1,3 1,6 0,3 0,7 -2,13 -2,6 -4,13 -9,22l-5 11 6 11c45,75 80,163 123,246 21,41 45,81 74,117 26,32 56,60 91,84 0,6 -1,12 -1,18 0,19 3,36 7,52 6,23 16,42 24,60 5,12 10,23 14,34 -15,6 -34,10 -53,13 -43,6 -92,7 -139,13 -24,3 -46,7 -68,14 -14,4 -28,11 -40,18 -8,-5 -16,-10 -25,-13 -16,-6 -33,-8 -51,-8 -31,0 -65,7 -94,17 -15,5 -29,11 -41,17 -6,2 -11,5 -16,8 -9,-7 -19,-13 -29,-16 -17,-6 -34,-7 -51,-7 -21,0 -43,2 -64,5 -21,2 -42,5 -61,5 -4,0 -8,0 -12,0 -14,-1 -29,-5 -44,-9 -15,-5 -32,-10 -51,-10 -6,-1 -12,-1 -18,-1 -55,0 -109,8 -158,8 -30,0 -59,-3 -85,-11 -2,-24 -2,-41 -2,-58 0,-18 0,-36 2,-62 24,-16 42,-39 54,-65 13,-30 19,-64 19,-101 0,-18 -2,-38 -4,-58 6,-5 12,-11 17,-16 11,-13 20,-25 27,-38 9,-14 16,-28 27,-48 42,-77 88,-155 123,-239 13,-32 20,-54 24,-76 5,-23 8,-45 15,-81 5,-22 15,-43 28,-64 20,-31 46,-62 69,-96 11,-17 22,-35 29,-55 8,-20 13,-41 13,-64 0,-24 -6,-50 -17,-77l-4 -8 -8 -4c-37,-16 -72,-24 -105,-24 -55,0 -104,22 -139,57 -33,33 -54,77 -61,126 -21,12 -38,28 -50,47 -22,32 -33,70 -43,107 -9,38 -17,75 -30,108 -17,43 -46,91 -72,142 -24,48 -46,99 -51,155 -9,5 -16,11 -22,18 -7,7 -11,16 -16,24 -5,13 -9,26 -13,39 -4,13 -9,26 -14,39 -5,12 -13,22 -21,30 -3,5 -7,9 -11,14 -1,2 -3,5 -5,8 -2,3 -3,8 -4,14 0,1 1,3 1,4 0,6 3,12 6,17 6,8 13,12 18,15 5,3 9,5 12,6 0,0 0,0 1,1 -6,9 -14,17 -24,24 -11,9 -26,18 -41,28l-13 9 3 16c2,7 3,14 3,21 0,11 -3,21 -6,31 -6,14 -16,27 -29,37 -12,11 -29,20 -47,26l-12 4 -3 13c-7,30 -18,52 -33,72 -21,29 -51,51 -81,77 -14,14 -29,28 -42,45 -13,17 -24,37 -32,60 -5,15 -6,30 -6,43 0,8 0,16 0,23 0,14 0,26 -4,40 -16,58 -48,127 -74,187 -27,60 -59,116 -99,153l-7 7 0 75c-44,34 -78,69 -110,108 -34,41 -65,86 -103,137 -19,25 -43,57 -63,90 -10,17 -19,34 -26,51 -7,17 -11,34 -11,51 0,10 1,19 4,28 5,14 14,26 26,35 13,9 28,15 47,19 1,1 2,1 3,1 2,0 3,0 5,0 4,0 9,0 16,0 23,-2 62,-5 99,-8 18,-2 36,-4 51,-6 7,-1 14,-2 20,-3 6,-1 11,-2 15,-3 19,-5 37,-14 52,-24 23,-15 41,-33 57,-47 8,-7 15,-13 20,-17 6,-4 11,-7 12,-7l15 -4 3 -15c10,-61 33,-108 60,-157 24,-47 52,-94 68,-154 18,-11 32,-25 44,-37l9 -9 -3 -12c0,-2 0,-4 0,-6 0,-7 1,-12 4,-18 4,-9 12,-18 20,-27 4,-4 8,-9 12,-14 3,-4 7,-10 10,-17 3,-7 5,-14 5,-21 1,-7 1,-13 1,-19 0,-3 0,-6 0,-9 0,-6 0,-11 1,-16 0,-4 1,-7 2,-9 3,-7 9,-15 15,-23 10,-13 23,-27 35,-42 13,-15 26,-31 35,-49 11,-21 14,-42 18,-60 1,-8 2,-16 4,-22 2,-5 3,-9 4,-10 8,-10 16,-18 26,-25 14,-9 30,-16 50,-20 20,-4 43,-5 69,-5 52,0 113,6 180,6 24,0 48,-1 74,-3l11 -1 7 -10c6,-11 16,-19 28,-24 12,-6 27,-9 43,-9 17,0 35,4 51,10 16,7 29,16 38,26l17 20 18 -20c6,-7 12,-11 19,-15 9,-6 20,-10 35,-12 13,-2 29,-3 47,-3 14,0 30,1 46,1 11,0 23,0 35,-1 100,-5 215,-16 309,-16 38,0 73,2 101,6 26,4 50,14 74,24 12,6 25,11 38,15 13,5 27,8 41,9 2,0 5,0 7,0 9,0 18,-1 29,-2 15,-2 33,-5 50,-7 17,-2 34,-4 47,-4 10,0 18,1 22,2 0,0 4,2 8,6 9,7 20,19 32,34 18,23 37,52 53,80 8,14 15,27 21,40 5,13 10,24 12,33 0,0 0,1 0,2 0,2 0,6 -1,11 -1,5 -2,11 -2,18 0,6 1,13 4,20l0 0c19,42 44,78 68,112 23,34 44,65 54,95 7,20 8,38 9,57 0,10 1,20 2,30 1,10 4,20 9,30 20,38 47,73 73,109 25,36 48,72 58,106 6,19 8,35 10,48 1,10 1,19 2,27 1,6 1,12 3,19 1,5 2,10 5,15 4,7 11,14 18,19 7,5 15,8 25,11 5,2 10,3 16,3 7,0 13,-2 19,-4 8,-3 14,-7 19,-10 6,-4 11,-6 17,-8 18,-6 33,-8 47,-8 12,0 25,1 38,1 8,0 16,0 25,-2 5,-1 9,-3 13,-5 6,-3 11,-6 16,-10 7,-5 14,-11 21,-15 7,-3 13,-5 17,-5 3,0 6,1 10,4l25 15 10 -28c12,-35 27,-65 46,-90 20,-25 43,-44 73,-57l18 -8 -4 -19c-4,-22 -10,-42 -15,-62zm-2352 -1241l0 0 0 0 0 0 0 0zm6610 1764c-11,-51 -139,-73 -217,-114 -80,-42 -143,-120 -188,-152 -40,-28 -102,-45 -132,-67 -14,-9 -21,-33 -38,-47 -17,-13 -43,-16 -57,-29 -39,-34 -71,-77 -113,-114 -88,-75 -167,-154 -245,-227 -48,-46 -107,-71 -142,-105 -38,-38 -58,-94 -94,-133 -60,-62 -128,-101 -189,-161 -7,-22 -9,-49 -19,-67 -122,-99 -209,-233 -321,-342 -34,-19 -38,17 -85,10 -21,-27 -43,-52 -37,-105 -48,13 -79,14 -95,-19 2,4 1,-79 10,-95 27,-52 158,-48 217,-57 153,-23 193,-125 330,-199 27,-15 52,-13 75,-29 83,-56 142,-143 170,-228 46,-33 76,-82 133,-104 1,-73 60,-119 85,-190 95,-277 -85,-410 -274,-494 -68,-30 -126,-33 -198,-48 -47,-9 -87,-39 -142,-47 -44,-6 -100,-7 -151,-10 -198,-8 -447,-20 -594,-9 -112,8 -194,82 -293,57 -70,-62 -107,-158 -198,-200 -52,66 -78,36 -170,67 -75,24 -140,77 -170,85 -78,22 -182,3 -208,95 68,52 160,80 227,133 -15,49 22,86 28,114 4,18 -6,41 0,57 11,32 40,53 47,86 13,55 -3,150 0,228 1,25 17,49 19,76 8,104 -11,217 19,304 10,29 28,31 38,47 46,76 1,132 -66,143 3,40 28,44 28,85 0,24 -19,50 -19,76 1,46 26,93 29,143 7,137 -67,286 -10,418 9,38 -28,28 -19,66 29,43 92,71 76,133 -13,50 -51,26 -85,67 -21,141 3,281 -19,408 -13,73 -82,133 -66,209 111,14 138,-53 217,-76 115,-33 238,-3 302,-76 48,-55 18,-143 0,-237 -11,-56 -34,-121 -38,-181 -5,-77 16,-160 10,-227 -3,-28 -23,-58 -29,-105 -12,-103 5,-295 76,-313 32,-9 73,11 113,28 146,61 211,174 302,266 41,4 67,22 95,38 5,120 96,143 160,199 27,25 44,66 75,96 16,14 43,14 57,28 14,14 21,41 38,57 59,58 141,99 198,162 45,49 69,118 113,170 26,31 70,63 104,95 37,36 66,80 94,105 38,32 92,38 132,66 23,16 33,49 57,67 40,30 94,29 122,57 38,35 46,92 76,123 68,70 140,67 274,76 68,5 132,24 179,19 34,-3 61,-25 104,-28 57,-5 132,27 198,9 46,-12 107,-76 94,-133zm-2199 -1985c-30,7 -71,20 -103,28 -40,10 -80,7 -104,19 -79,39 -68,151 -189,162 -6,-117 40,-325 10,-447 -12,-48 -50,-62 -67,-95 9,-39 30,-50 38,-95 17,-94 -29,-255 10,-323 21,-38 165,-69 226,-76 242,-28 685,31 774,133 51,59 43,99 19,171 -35,103 -62,140 -123,228 -77,113 -150,194 -283,247 -61,24 -139,32 -208,48z"/>
  </g>
 </g>
</svg>
